<svg id="svg" version="1.1" xmlns="http://www.w3.org/2000/svg" xmlns:xlink="http://www.w3.org/1999/xlink" width="400" height="594.2857142857142" viewBox="0, 0, 400,594.2857142857142"><g id="svgg"><path id="path0" d="M123.600 262.018 C 115.850 262.887,113.652 263.225,112.200 263.767 C 111.320 264.096,110.145 264.373,109.589 264.382 C 109.033 264.392,108.223 264.644,107.789 264.943 C 107.355 265.242,106.343 265.607,105.540 265.754 C 104.737 265.901,103.860 266.286,103.591 266.611 C 103.322 266.935,102.848 267.200,102.538 267.200 C 100.084 267.200,86.000 277.755,86.000 279.594 C 86.000 279.796,85.774 280.104,85.499 280.280 C 83.276 281.699,77.304 293.142,75.956 298.565 C 75.742 299.426,75.439 300.326,75.283 300.565 C 74.752 301.380,73.564 307.390,73.181 311.200 C 72.970 313.290,72.619 315.755,72.399 316.677 C 71.568 320.167,72.234 424.959,73.144 434.000 C 73.332 435.870,73.678 438.030,73.913 438.800 C 74.147 439.570,74.465 441.190,74.619 442.400 C 74.773 443.610,75.147 444.955,75.450 445.389 C 75.752 445.823,76.000 446.629,76.000 447.181 C 76.000 448.154,76.956 450.886,78.465 454.226 C 78.869 455.121,79.200 456.066,79.200 456.326 C 79.200 456.587,79.366 456.800,79.568 456.800 C 79.771 456.800,80.052 457.328,80.194 457.972 C 80.336 458.617,80.710 459.359,81.026 459.621 C 81.342 459.883,81.600 460.309,81.600 460.568 C 81.600 460.826,81.868 461.389,82.196 461.819 C 82.524 462.248,83.600 463.680,84.588 465.000 C 87.341 468.681,94.203 475.200,95.324 475.200 C 95.454 475.200,96.424 475.785,97.480 476.500 C 98.536 477.215,99.940 478.006,100.600 478.258 C 101.260 478.510,102.790 479.111,104.000 479.594 C 108.286 481.303,112.107 482.228,118.000 482.979 C 126.096 484.011,136.533 483.590,143.000 481.970 C 148.974 480.473,152.870 479.103,155.600 477.538 C 155.930 477.349,156.650 476.974,157.200 476.705 C 157.750 476.436,158.290 476.120,158.400 476.001 C 158.510 475.883,159.860 474.941,161.400 473.907 C 165.704 471.017,174.000 461.871,174.000 460.016 C 174.000 459.819,174.235 459.419,174.522 459.129 C 175.206 458.435,178.400 451.721,178.400 450.975 C 178.400 450.657,178.760 449.725,179.200 448.904 C 179.640 448.084,180.000 446.950,180.000 446.386 C 180.000 445.822,180.179 445.181,180.398 444.962 C 180.617 444.743,181.055 443.222,181.370 441.582 C 181.686 439.942,182.129 437.790,182.355 436.800 C 182.580 435.810,182.773 434.100,182.783 433.000 C 182.792 431.900,183.070 429.589,183.400 427.865 C 184.315 423.083,184.305 321.282,183.389 314.200 C 182.320 305.940,181.460 301.408,180.558 299.286 C 180.251 298.564,180.000 297.624,180.000 297.197 C 180.000 296.502,179.602 295.470,177.763 291.400 C 177.465 290.740,177.032 289.750,176.801 289.200 C 176.570 288.650,175.944 287.480,175.410 286.600 C 174.875 285.720,174.305 284.730,174.142 284.400 C 171.792 279.634,162.668 270.778,158.070 268.797 C 157.558 268.577,156.870 268.128,156.541 267.798 C 156.212 267.469,155.685 267.200,155.370 267.200 C 155.055 267.200,154.125 266.840,153.304 266.400 C 152.484 265.960,151.530 265.600,151.186 265.600 C 150.842 265.600,150.381 265.421,150.161 265.201 C 149.942 264.982,148.691 264.606,147.381 264.365 C 146.072 264.123,144.777 263.742,144.504 263.517 C 144.231 263.292,142.431 262.944,140.504 262.744 C 138.577 262.544,135.560 262.219,133.800 262.022 C 130.102 261.608,127.263 261.607,123.600 262.018 M281.800 262.018 C 275.157 262.873,273.050 263.225,272.644 263.551 C 272.400 263.747,271.596 264.037,270.858 264.195 C 269.699 264.443,268.724 264.805,265.600 266.150 C 265.270 266.293,264.460 266.765,263.800 267.200 C 263.140 267.635,262.165 268.216,261.633 268.490 C 260.212 269.224,258.543 270.668,255.611 273.701 C 252.185 277.245,252.455 276.888,250.182 280.888 C 247.486 285.632,246.914 285.255,246.840 278.684 C 246.802 275.310,246.201 268.380,245.784 266.500 L 245.585 265.600 231.692 265.600 L 217.800 265.600 217.907 372.100 C 217.966 430.675,218.096 478.827,218.196 479.105 C 218.340 479.502,221.451 479.588,232.689 479.505 L 247.000 479.400 247.229 406.800 C 247.467 330.943,247.646 322.853,249.228 316.114 C 249.653 314.307,250.000 312.363,250.000 311.795 C 250.000 311.226,250.249 310.274,250.553 309.680 C 250.857 309.086,251.233 307.835,251.388 306.900 C 251.543 305.965,251.812 305.200,251.985 305.200 C 252.158 305.200,252.405 304.675,252.533 304.033 C 253.154 300.929,259.094 293.395,261.530 292.622 C 261.969 292.483,262.546 292.106,262.813 291.785 C 263.080 291.463,263.686 291.200,264.160 291.200 C 264.634 291.200,265.413 290.926,265.891 290.592 C 267.593 289.399,276.082 288.845,281.600 289.566 C 288.873 290.517,295.441 296.975,297.501 305.200 C 297.804 306.410,298.241 308.030,298.472 308.800 C 298.755 309.743,299.005 337.710,299.238 394.389 C 299.427 440.693,299.671 478.808,299.779 479.089 C 299.933 479.490,303.014 479.600,314.122 479.600 L 328.270 479.600 328.534 463.100 C 328.899 440.374,328.801 310.069,328.415 304.400 C 328.107 299.872,327.060 293.623,326.394 292.349 C 326.208 291.991,325.932 291.001,325.783 290.149 C 324.298 281.687,315.471 270.299,307.400 266.432 C 306.300 265.905,305.097 265.328,304.727 265.150 C 299.501 262.638,288.580 261.146,281.800 262.018 M134.861 289.100 C 135.135 289.375,135.729 289.606,136.180 289.613 C 138.529 289.648,147.200 295.796,147.200 297.425 C 147.200 297.597,147.450 298.021,147.755 298.369 C 148.061 298.716,148.795 299.990,149.388 301.200 C 149.981 302.410,150.656 303.753,150.888 304.183 C 151.716 305.717,152.833 310.725,153.658 316.600 C 154.402 321.895,154.423 423.852,153.681 429.000 C 152.822 434.961,152.017 438.544,150.984 441.000 C 149.886 443.612,148.294 446.949,147.949 447.363 C 146.350 449.282,146.000 449.762,146.000 450.038 C 146.000 450.483,141.716 453.698,139.800 454.691 C 133.656 457.877,124.288 458.154,117.800 455.342 C 117.325 455.136,116.244 454.481,114.600 453.404 C 113.200 452.486,108.400 447.586,108.400 447.075 C 108.400 446.883,108.040 446.269,107.600 445.709 C 107.160 445.150,106.800 444.356,106.800 443.946 C 106.800 443.536,106.627 443.200,106.415 443.200 C 106.204 443.200,105.841 442.495,105.609 441.633 C 105.377 440.772,104.921 439.557,104.596 438.933 C 104.271 438.310,104.004 437.417,104.002 436.949 C 104.001 436.481,103.755 435.491,103.455 434.749 C 100.857 428.323,100.869 314.333,103.467 309.400 C 103.699 308.960,103.986 307.967,104.104 307.194 C 104.392 305.313,107.759 298.358,109.200 296.667 C 111.972 293.414,117.529 289.637,119.600 289.599 C 119.930 289.593,120.920 289.320,121.800 288.992 C 123.844 288.232,134.078 288.316,134.861 289.100 " stroke="none" fill="#fbf9f8" fill-rule="evenodd"></path><path id="path1" d="M268.140 1.200 C 268.008 1.860,267.672 2.400,267.393 2.400 C 266.835 2.400,266.400 3.269,266.400 4.384 C 266.400 4.779,266.130 5.326,265.800 5.600 C 265.459 5.883,265.200 6.755,265.200 7.622 C 265.200 8.790,265.015 9.205,264.408 9.397 C 263.973 9.536,263.634 9.773,263.655 9.924 C 263.835 11.187,263.514 12.400,263.000 12.400 C 262.626 12.400,262.400 12.778,262.400 13.404 C 262.400 13.956,262.040 14.716,261.600 15.093 C 261.160 15.470,260.800 16.257,260.800 16.842 C 260.800 17.570,260.547 17.973,260.000 18.116 C 259.513 18.243,259.200 18.662,259.200 19.186 C 259.200 19.660,259.035 19.945,258.833 19.820 C 258.630 19.695,258.346 20.136,258.200 20.800 C 258.054 21.464,257.590 22.191,257.167 22.417 C 256.745 22.643,256.400 23.073,256.400 23.371 C 256.400 23.670,256.130 24.018,255.800 24.145 C 255.470 24.271,255.200 24.831,255.200 25.387 C 255.200 26.047,254.978 26.400,254.563 26.400 C 254.212 26.400,253.831 26.760,253.716 27.200 C 253.601 27.640,253.258 28.000,252.953 28.000 C 252.649 28.000,252.400 28.291,252.400 28.647 C 252.400 29.002,251.680 29.971,250.800 30.800 C 249.920 31.629,249.200 32.579,249.200 32.911 C 249.200 33.243,248.930 33.618,248.600 33.745 C 248.270 33.871,248.000 34.251,248.000 34.587 C 248.000 34.933,247.652 35.200,247.200 35.200 C 246.756 35.200,246.400 35.467,246.400 35.800 C 246.400 36.130,246.130 36.400,245.800 36.400 C 245.467 36.400,245.200 36.756,245.200 37.200 C 245.200 37.652,244.933 38.000,244.587 38.000 C 244.251 38.000,243.871 38.270,243.745 38.600 C 243.618 38.930,243.289 39.200,243.013 39.200 C 242.737 39.200,241.631 40.003,240.556 40.985 C 237.765 43.532,237.678 43.600,237.217 43.600 C 236.988 43.600,236.800 43.960,236.800 44.400 C 236.800 44.933,236.533 45.200,236.000 45.200 C 235.560 45.200,235.200 45.449,235.200 45.753 C 235.200 46.058,234.840 46.401,234.400 46.516 C 233.960 46.631,233.600 47.012,233.600 47.363 C 233.600 47.779,233.247 48.000,232.581 48.000 C 231.891 48.000,230.914 48.648,229.555 50.007 C 228.391 51.171,227.139 52.047,226.574 52.094 C 226.037 52.138,225.497 52.495,225.372 52.887 C 225.248 53.279,224.798 53.600,224.373 53.600 C 223.877 53.600,223.600 53.876,223.600 54.368 C 223.600 54.897,223.225 55.219,222.400 55.400 C 221.740 55.545,221.200 55.829,221.200 56.032 C 221.200 56.234,220.852 56.400,220.427 56.400 C 220.002 56.400,219.540 56.760,219.400 57.200 C 219.260 57.640,218.798 58.000,218.373 58.000 C 217.948 58.000,217.600 58.158,217.600 58.351 C 217.600 58.545,217.060 58.927,216.400 59.200 C 215.740 59.473,215.200 59.945,215.200 60.249 C 215.200 60.593,214.755 60.800,214.014 60.800 C 213.238 60.800,212.680 61.076,212.400 61.600 C 212.165 62.040,211.708 62.400,211.386 62.400 C 211.064 62.400,210.800 62.670,210.800 63.000 C 210.800 63.374,210.422 63.600,209.796 63.600 C 209.244 63.600,208.484 63.960,208.107 64.400 C 207.730 64.840,207.113 65.200,206.735 65.200 C 206.357 65.200,205.929 65.391,205.785 65.625 C 205.640 65.858,205.090 66.214,204.561 66.415 C 204.033 66.616,203.600 67.055,203.600 67.390 C 203.600 67.778,203.227 68.000,202.573 68.000 C 201.918 68.000,201.069 68.506,200.226 69.400 C 199.367 70.311,198.538 70.800,197.853 70.800 C 197.217 70.800,196.800 71.022,196.800 71.360 C 196.800 71.675,196.142 72.084,195.300 72.293 C 194.475 72.498,193.845 72.876,193.900 73.133 C 193.955 73.390,193.758 73.600,193.462 73.600 C 193.166 73.600,192.598 73.960,192.200 74.400 C 191.802 74.840,191.048 75.200,190.525 75.200 C 190.003 75.200,189.471 75.470,189.345 75.800 C 189.218 76.130,188.788 76.400,188.390 76.400 C 187.169 76.400,186.440 76.838,186.668 77.433 C 186.813 77.812,186.606 78.000,186.043 78.000 C 185.560 78.000,185.200 78.257,185.200 78.600 C 185.200 78.994,184.805 79.200,184.049 79.200 C 182.896 79.200,181.776 80.042,182.270 80.537 C 182.415 80.682,182.066 80.800,181.495 80.800 C 180.924 80.800,180.219 81.035,179.929 81.322 C 179.638 81.610,179.085 81.964,178.700 82.110 C 178.315 82.256,178.000 82.651,178.000 82.987 C 178.000 83.375,177.631 83.600,176.996 83.600 C 176.444 83.600,175.684 83.960,175.307 84.400 C 174.930 84.840,174.302 85.200,173.911 85.200 C 173.520 85.200,173.200 85.391,173.200 85.624 C 173.200 85.857,173.020 85.936,172.800 85.800 C 172.580 85.664,172.400 85.722,172.400 85.930 C 172.400 86.137,172.040 86.401,171.600 86.516 C 171.160 86.631,170.800 87.012,170.800 87.363 C 170.800 87.804,170.431 88.000,169.600 88.000 C 168.940 88.000,168.400 88.184,168.400 88.410 C 168.400 88.635,167.950 88.991,167.400 89.200 C 166.850 89.409,166.400 89.855,166.400 90.190 C 166.400 90.601,166.009 90.800,165.200 90.800 C 164.400 90.800,164.000 91.000,164.000 91.400 C 164.000 91.730,163.732 92.000,163.403 92.000 C 163.075 92.000,162.582 92.360,162.307 92.800 C 162.032 93.240,161.407 93.600,160.918 93.600 C 160.429 93.600,159.835 93.960,159.600 94.400 C 159.365 94.840,158.908 95.200,158.586 95.200 C 158.264 95.200,158.000 95.470,158.000 95.800 C 158.000 96.130,157.674 96.400,157.275 96.400 C 156.877 96.400,156.164 96.760,155.692 97.200 C 155.220 97.640,154.646 98.000,154.417 98.000 C 154.188 98.000,154.000 98.184,154.000 98.410 C 154.000 98.635,153.549 98.991,152.997 99.201 C 152.445 99.411,152.040 99.801,152.097 100.067 C 152.154 100.334,151.840 100.628,151.400 100.719 C 150.960 100.811,150.278 101.227,149.884 101.643 C 149.491 102.059,148.906 102.400,148.584 102.400 C 148.263 102.400,148.000 102.670,148.000 103.000 C 148.000 103.330,147.775 103.603,147.500 103.607 C 146.916 103.615,145.200 105.331,145.200 105.906 C 145.200 106.123,144.648 106.410,143.973 106.545 C 143.299 106.680,142.820 106.928,142.910 107.095 C 143.122 107.491,141.739 108.806,141.433 108.500 C 141.305 108.372,141.200 108.465,141.200 108.706 C 141.200 108.948,140.840 109.260,140.400 109.400 C 139.960 109.540,139.600 109.912,139.600 110.227 C 139.600 110.542,139.324 110.800,138.987 110.800 C 138.651 110.800,138.271 111.070,138.145 111.400 C 138.018 111.730,137.676 112.000,137.384 112.000 C 137.093 112.000,136.740 112.360,136.600 112.800 C 136.460 113.240,136.088 113.600,135.773 113.600 C 135.458 113.600,135.200 113.849,135.200 114.153 C 135.200 114.458,134.840 114.801,134.400 114.916 C 133.960 115.031,133.600 115.391,133.600 115.716 C 133.600 116.041,133.240 116.401,132.800 116.516 C 132.360 116.631,132.000 117.012,132.000 117.363 C 132.000 117.713,131.730 118.000,131.400 118.000 C 131.070 118.000,130.800 118.258,130.800 118.573 C 130.800 118.888,130.440 119.260,130.000 119.400 C 129.560 119.540,129.200 119.819,129.200 120.020 C 129.200 120.221,128.615 121.014,127.900 121.781 C 126.092 123.723,125.592 124.336,125.528 124.692 C 125.298 125.977,125.007 126.400,124.353 126.400 C 123.882 126.400,123.600 126.682,123.600 127.153 C 123.600 127.586,123.237 128.002,122.748 128.129 C 122.127 128.292,121.970 128.546,122.169 129.064 C 122.319 129.455,122.314 129.648,122.158 129.491 C 121.685 129.019,120.800 130.034,120.800 131.049 C 120.800 131.635,120.566 132.000,120.190 132.000 C 119.855 132.000,119.409 132.450,119.200 133.000 C 118.991 133.550,118.635 134.000,118.410 134.000 C 118.184 134.000,118.000 134.540,118.000 135.200 C 118.000 136.011,117.801 136.400,117.387 136.400 C 117.051 136.400,116.663 136.715,116.527 137.100 C 116.390 137.485,116.052 138.070,115.776 138.400 C 115.499 138.730,115.207 139.450,115.127 140.000 C 115.047 140.550,114.768 140.958,114.508 140.906 C 114.247 140.854,113.919 141.426,113.778 142.178 C 113.637 142.930,113.286 143.635,112.998 143.745 C 112.711 143.856,112.345 144.543,112.187 145.273 C 112.028 146.003,111.651 146.955,111.349 147.389 C 111.047 147.823,110.800 148.433,110.800 148.745 C 110.800 149.057,110.515 149.520,110.167 149.775 C 109.819 150.029,109.440 150.949,109.324 151.819 C 109.209 152.688,108.864 153.544,108.557 153.720 C 108.187 153.932,108.000 154.779,108.000 156.243 C 108.000 157.456,107.865 158.365,107.700 158.266 C 106.994 157.838,106.527 159.223,106.437 162.012 C 106.369 164.103,106.169 165.096,105.770 165.320 C 105.292 165.588,105.200 168.122,105.200 181.020 C 105.200 197.609,105.149 198.000,103.000 198.000 C 102.670 198.000,102.400 198.270,102.400 198.600 C 102.400 199.015,101.983 199.200,101.047 199.200 C 100.030 199.200,99.641 199.399,99.484 200.000 C 99.369 200.440,98.994 200.800,98.650 200.800 C 97.842 200.800,94.994 202.284,94.378 203.026 C 94.116 203.342,93.583 203.600,93.194 203.600 C 92.804 203.600,92.392 203.844,92.277 204.143 C 92.163 204.442,91.513 204.797,90.834 204.933 C 90.103 205.079,89.600 205.428,89.600 205.790 C 89.600 206.220,89.188 206.400,88.200 206.400 C 87.067 206.400,86.800 206.552,86.800 207.200 C 86.800 207.733,86.533 208.000,86.000 208.000 C 85.556 208.000,85.200 208.267,85.200 208.600 C 85.200 208.998,84.802 209.200,84.014 209.200 C 83.238 209.200,82.680 209.476,82.400 210.000 C 82.147 210.472,81.562 210.800,80.973 210.800 C 80.424 210.800,79.871 211.070,79.745 211.400 C 79.618 211.730,79.112 212.000,78.619 212.000 C 78.127 212.000,77.398 212.360,77.000 212.800 C 76.602 213.240,76.034 213.600,75.738 213.600 C 75.442 213.600,75.200 213.870,75.200 214.200 C 75.200 214.540,74.842 214.800,74.374 214.800 C 73.254 214.800,71.923 215.552,72.212 216.020 C 72.342 216.229,72.077 216.423,71.624 216.450 C 70.033 216.547,69.879 216.605,69.640 217.200 C 69.508 217.530,69.040 217.861,68.600 217.936 C 67.355 218.147,65.200 219.603,65.200 220.233 C 65.200 220.598,64.768 220.800,63.987 220.800 C 63.302 220.800,62.679 221.050,62.554 221.376 C 62.433 221.692,61.823 222.063,61.200 222.200 C 60.577 222.337,59.967 222.708,59.846 223.024 C 59.724 223.341,59.394 223.600,59.113 223.599 C 58.225 223.597,55.200 225.376,55.200 225.899 C 55.200 226.175,54.763 226.400,54.229 226.400 C 53.694 226.400,53.019 226.636,52.729 226.925 C 52.438 227.213,51.615 227.707,50.900 228.022 C 50.185 228.337,49.600 228.710,49.600 228.851 C 49.600 228.992,49.240 229.201,48.800 229.316 C 48.360 229.431,48.000 229.812,48.000 230.163 C 48.000 230.624,47.614 230.800,46.600 230.800 C 45.671 230.800,45.200 230.987,45.200 231.357 C 45.200 231.857,43.455 232.631,42.700 232.466 C 42.535 232.430,42.400 232.670,42.400 233.000 C 42.400 233.333,42.044 233.600,41.600 233.600 C 41.160 233.600,40.800 233.766,40.800 233.969 C 40.800 234.172,40.170 234.546,39.400 234.800 C 38.630 235.054,38.000 235.518,38.000 235.831 C 38.000 236.198,37.569 236.400,36.787 236.400 C 36.102 236.400,35.479 236.650,35.354 236.976 C 35.233 237.292,34.596 237.669,33.940 237.813 C 33.283 237.957,32.649 238.328,32.530 238.638 C 32.412 238.947,31.974 239.200,31.557 239.200 C 31.141 239.200,30.800 239.380,30.800 239.600 C 30.800 239.820,30.519 240.000,30.176 240.000 C 29.833 240.000,29.664 240.180,29.800 240.400 C 29.940 240.627,29.604 240.800,29.024 240.800 C 28.417 240.800,28.000 241.026,28.000 241.355 C 28.000 241.674,27.402 242.023,26.600 242.174 C 25.806 242.323,25.200 242.674,25.200 242.986 C 25.200 243.289,24.648 243.658,23.973 243.806 C 23.298 243.954,22.649 244.328,22.530 244.638 C 22.412 244.947,21.974 245.200,21.557 245.200 C 21.141 245.200,20.800 245.470,20.800 245.800 C 20.800 246.130,20.551 246.400,20.247 246.400 C 19.942 246.400,19.599 246.761,19.484 247.202 C 19.344 247.736,19.062 247.922,18.637 247.759 C 18.186 247.586,18.000 247.747,18.000 248.311 C 18.000 248.770,17.662 249.195,17.200 249.316 C 16.760 249.431,16.400 249.812,16.400 250.163 C 16.400 250.513,16.130 250.800,15.800 250.800 C 15.460 250.800,15.200 251.159,15.200 251.627 C 15.200 252.272,15.024 252.398,14.400 252.200 C 13.776 252.002,13.600 252.128,13.600 252.773 C 13.600 253.241,13.340 253.600,13.000 253.600 C 12.667 253.600,12.400 253.956,12.400 254.400 C 12.400 254.840,12.216 255.200,11.991 255.200 C 11.767 255.200,11.363 255.695,11.094 256.300 C 10.826 256.905,10.285 257.754,9.893 258.186 C 9.501 258.618,9.271 259.208,9.382 259.497 C 9.493 259.786,9.227 260.327,8.792 260.700 C 8.355 261.073,8.000 261.877,8.000 262.489 C 8.000 263.280,7.798 263.600,7.300 263.601 C 6.779 263.601,6.573 263.979,6.494 265.081 C 6.436 265.895,6.166 266.701,5.894 266.874 C 5.622 267.047,5.571 267.191,5.780 267.194 C 5.989 267.197,5.944 267.416,5.680 267.680 C 5.416 267.944,5.200 269.204,5.200 270.480 C 5.200 272.189,5.054 272.800,4.647 272.800 C 3.691 272.800,3.646 274.271,3.617 306.200 C 3.586 339.032,3.899 358.109,4.463 357.761 C 4.648 357.647,4.824 358.328,4.853 359.276 L 4.905 361.000 5.200 359.600 L 5.495 358.200 5.595 359.800 C 5.693 361.369,5.701 361.377,6.000 360.200 C 6.304 359.006,6.306 359.007,6.353 360.500 L 6.400 362.000 38.600 362.000 L 70.800 362.000 70.810 393.900 C 70.820 424.597,71.085 433.269,72.038 434.177 C 72.362 434.485,72.413 434.113,72.227 432.800 C 72.087 431.810,71.815 429.380,71.623 427.400 C 71.136 422.365,71.156 317.180,71.645 314.400 C 71.858 313.190,72.210 310.698,72.427 308.862 C 72.644 307.025,73.087 304.888,73.411 304.113 C 73.735 303.337,74.000 302.134,74.000 301.440 C 74.000 300.746,74.247 299.823,74.550 299.389 C 74.852 298.955,75.225 297.852,75.379 296.937 C 75.532 296.022,75.909 294.942,76.216 294.537 C 76.523 294.132,76.780 293.417,76.787 292.949 C 76.794 292.481,77.052 291.889,77.361 291.633 C 77.669 291.377,78.044 290.681,78.193 290.086 C 78.342 289.491,78.630 288.805,78.833 288.560 C 79.036 288.316,79.663 287.235,80.228 286.158 C 80.792 285.081,81.469 284.020,81.732 283.800 C 81.995 283.580,82.416 282.950,82.668 282.400 C 83.671 280.212,90.136 273.547,93.150 271.593 C 94.278 270.863,95.200 270.116,95.200 269.933 C 95.200 269.750,95.560 269.600,96.000 269.600 C 96.440 269.600,96.800 269.411,96.800 269.180 C 96.800 268.948,97.385 268.496,98.100 268.174 C 98.815 267.852,99.670 267.425,100.000 267.226 C 101.510 266.315,104.089 265.199,104.712 265.187 C 105.091 265.180,105.749 264.910,106.176 264.587 C 106.604 264.264,107.324 263.994,107.776 263.986 C 108.229 263.979,109.320 263.625,110.200 263.200 C 111.080 262.775,112.542 262.421,113.450 262.414 C 114.357 262.406,115.887 262.112,116.850 261.759 C 118.285 261.234,120.438 261.118,128.800 261.118 C 137.162 261.118,139.315 261.234,140.750 261.759 C 141.713 262.112,143.153 262.401,143.950 262.402 C 144.748 262.404,145.919 262.676,146.553 263.006 C 147.187 263.337,148.399 263.718,149.245 263.854 C 150.092 263.989,150.990 264.347,151.241 264.650 C 151.493 264.952,152.047 265.200,152.474 265.200 C 153.755 265.200,158.366 267.625,162.554 270.502 C 165.891 272.793,173.200 280.276,173.200 281.400 C 173.200 281.546,173.830 282.434,174.600 283.374 C 175.370 284.314,176.000 285.351,176.000 285.680 C 176.000 286.009,176.360 286.693,176.800 287.200 C 177.240 287.707,177.600 288.433,177.600 288.812 C 177.600 289.192,177.870 289.726,178.200 290.000 C 178.530 290.274,178.806 290.791,178.814 291.149 C 178.821 291.507,179.175 292.520,179.600 293.400 C 180.025 294.280,180.379 295.327,180.386 295.726 C 180.394 296.126,180.622 296.846,180.894 297.326 C 181.166 297.807,181.603 299.190,181.865 300.400 C 182.126 301.610,182.524 303.320,182.747 304.200 C 184.548 311.281,184.719 315.329,184.860 354.400 C 184.931 374.090,185.039 383.855,185.100 376.100 L 185.210 362.000 200.740 362.000 L 216.270 362.000 216.535 377.065 C 216.681 385.351,216.800 411.713,216.800 435.647 C 216.800 467.818,216.921 479.428,217.264 480.181 L 217.728 481.200 232.655 481.200 L 247.582 481.200 248.156 480.300 C 248.644 479.534,248.773 470.664,249.018 420.700 L 249.306 362.000 273.651 362.000 L 297.996 362.000 298.104 396.300 C 298.163 415.165,298.206 403.690,298.198 370.800 C 298.185 315.158,298.136 310.863,297.492 309.036 C 297.111 307.956,296.800 306.482,296.800 305.760 C 296.800 305.038,296.633 304.344,296.429 304.218 C 296.225 304.092,295.840 303.316,295.573 302.494 C 295.307 301.672,294.484 300.081,293.744 298.959 C 293.005 297.836,292.400 296.711,292.400 296.459 C 292.400 296.206,292.260 296.000,292.088 296.000 C 291.917 296.000,291.152 295.404,290.388 294.677 C 288.619 292.990,286.555 291.761,284.905 291.412 C 284.192 291.262,283.506 290.972,283.381 290.769 C 282.973 290.109,269.060 290.312,267.746 290.998 C 267.116 291.326,266.300 291.596,265.933 291.598 C 263.789 291.605,256.000 297.736,256.000 299.415 C 256.000 299.715,255.775 300.104,255.500 300.280 C 254.877 300.679,253.197 303.986,253.199 304.811 C 253.200 305.147,252.953 305.777,252.651 306.211 C 252.349 306.645,251.984 307.630,251.838 308.400 C 251.693 309.170,251.323 310.700,251.015 311.800 C 250.354 314.163,249.654 318.162,249.125 322.600 C 248.902 324.469,248.663 357.731,248.550 402.592 C 248.375 472.274,248.298 479.450,247.716 480.092 C 246.736 481.176,218.225 481.183,217.668 480.100 C 217.122 479.038,216.656 265.816,217.198 264.803 C 217.616 264.023,218.018 264.000,231.433 264.000 L 245.238 264.000 246.219 265.058 C 246.759 265.641,247.224 266.406,247.253 266.758 C 247.282 267.111,247.431 270.910,247.583 275.200 C 247.749 279.868,247.987 282.639,248.177 282.100 C 248.351 281.605,248.650 281.200,248.841 281.200 C 249.033 281.200,249.468 280.615,249.809 279.900 C 250.970 277.464,251.643 276.400,252.022 276.400 C 252.230 276.400,252.400 276.171,252.400 275.892 C 252.400 275.315,257.425 270.148,258.618 269.497 C 259.048 269.263,259.544 268.830,259.720 268.535 C 259.896 268.241,260.195 268.000,260.385 268.000 C 260.575 268.000,261.687 267.370,262.856 266.600 C 264.025 265.830,265.279 265.200,265.642 265.200 C 266.005 265.200,266.526 264.930,266.800 264.600 C 267.074 264.270,267.637 264.000,268.050 264.000 C 268.464 264.000,269.475 263.640,270.296 263.200 C 271.116 262.760,272.372 262.400,273.086 262.400 C 273.800 262.400,275.062 262.145,275.892 261.832 C 280.503 260.097,297.359 261.000,302.244 263.245 C 303.148 263.660,304.251 264.000,304.695 264.000 C 305.139 264.000,305.711 264.252,305.967 264.561 C 306.223 264.869,306.907 265.241,307.487 265.386 C 308.737 265.700,312.065 267.868,313.925 269.580 C 314.653 270.251,315.320 270.800,315.407 270.800 C 315.611 270.800,317.600 272.789,317.600 272.993 C 317.600 273.080,318.149 273.747,318.820 274.475 C 319.492 275.204,320.583 276.741,321.245 277.892 C 321.907 279.042,322.618 280.088,322.825 280.215 C 323.031 280.343,323.200 280.723,323.200 281.061 C 323.200 281.398,323.560 282.131,324.000 282.691 C 324.440 283.250,324.800 284.112,324.800 284.605 C 324.800 285.098,325.070 285.726,325.400 286.000 C 325.730 286.274,326.000 286.829,326.000 287.234 C 326.000 287.639,326.360 288.884,326.800 290.000 C 327.240 291.116,327.600 292.541,327.600 293.166 C 327.600 293.791,327.860 294.925,328.178 295.686 C 328.496 296.447,328.970 299.304,329.231 302.035 C 330.356 313.812,330.070 479.073,328.922 480.221 C 328.438 480.705,325.988 480.800,313.994 480.800 L 299.645 480.800 299.023 479.911 C 298.588 479.290,298.400 479.206,298.400 479.631 C 298.400 481.144,298.957 481.200,314.018 481.200 C 327.876 481.200,328.713 481.159,329.359 480.445 C 329.989 479.749,330.609 430.306,330.787 366.500 L 330.800 362.000 365.400 362.000 L 400.000 362.000 400.000 312.800 C 400.000 280.267,399.864 263.600,399.600 263.600 C 399.380 263.600,399.200 263.069,399.200 262.420 C 399.200 261.771,398.946 261.096,398.636 260.920 C 398.325 260.744,397.901 259.970,397.693 259.200 C 397.485 258.430,397.109 257.845,396.858 257.900 C 396.606 257.955,396.400 257.539,396.400 256.976 C 396.400 256.396,396.227 256.060,396.000 256.200 C 395.780 256.336,395.600 256.207,395.600 255.913 C 395.600 255.619,395.060 254.787,394.400 254.064 C 393.740 253.342,393.200 252.587,393.200 252.388 C 393.200 252.188,392.930 252.129,392.600 252.255 C 392.245 252.392,392.000 252.260,392.000 251.932 C 392.000 251.627,391.632 251.063,391.183 250.678 C 390.734 250.293,390.474 249.803,390.607 249.589 C 390.739 249.375,390.498 249.200,390.070 249.200 C 389.629 249.200,389.203 248.853,389.084 248.398 C 388.934 247.826,388.672 247.674,388.168 247.868 C 387.611 248.081,387.519 247.989,387.732 247.432 C 387.926 246.928,387.774 246.666,387.202 246.516 C 386.761 246.401,386.400 246.144,386.400 245.945 C 386.400 245.746,385.956 245.380,385.413 245.133 C 384.869 244.885,384.523 244.525,384.642 244.332 C 384.762 244.138,384.711 244.014,384.530 244.056 C 383.759 244.232,382.000 243.468,382.000 242.957 C 382.000 242.650,381.865 242.387,381.700 242.370 C 380.287 242.230,379.367 241.884,379.090 241.389 C 378.909 241.065,378.390 240.800,377.937 240.800 C 377.387 240.800,377.187 240.610,377.334 240.227 C 377.486 239.831,377.161 239.567,376.283 239.374 C 375.584 239.221,374.829 238.847,374.606 238.543 C 374.383 238.239,373.759 237.906,373.220 237.803 C 372.681 237.700,372.087 237.342,371.900 237.008 C 371.713 236.673,371.029 236.400,370.380 236.400 C 369.598 236.400,369.200 236.198,369.200 235.800 C 369.200 235.470,368.975 235.196,368.700 235.191 C 368.425 235.186,367.750 234.830,367.200 234.400 C 366.650 233.970,365.975 233.614,365.700 233.609 C 365.425 233.604,364.840 233.240,364.400 232.800 C 363.960 232.360,363.259 232.000,362.843 232.000 C 362.426 232.000,361.982 231.730,361.855 231.400 C 361.724 231.057,361.127 230.800,360.459 230.800 C 359.630 230.800,359.233 230.569,359.084 230.000 C 358.959 229.521,358.538 229.200,358.037 229.200 C 357.577 229.200,357.200 229.016,357.200 228.791 C 357.200 228.567,356.705 228.164,356.100 227.896 C 355.495 227.628,354.762 227.182,354.471 226.905 C 354.181 226.627,353.596 226.400,353.171 226.400 C 352.747 226.400,351.995 226.032,351.500 225.581 C 351.005 225.131,350.315 224.501,349.966 224.181 C 349.618 223.862,348.943 223.600,348.466 223.600 C 347.963 223.600,347.600 223.349,347.600 223.000 C 347.600 222.670,347.375 222.386,347.100 222.369 C 345.769 222.288,345.029 221.996,344.710 221.425 C 344.516 221.079,343.834 220.800,343.180 220.800 C 342.437 220.800,342.000 220.593,342.000 220.242 C 342.000 219.626,338.240 217.494,337.846 217.887 C 337.619 218.115,337.442 217.400,337.553 216.700 C 337.579 216.535,337.465 216.421,337.300 216.447 C 336.112 216.635,334.800 216.317,334.800 215.843 C 334.800 215.231,333.959 214.800,332.767 214.800 C 332.345 214.800,332.000 214.530,332.000 214.200 C 332.000 213.870,331.680 213.600,331.288 213.600 C 330.897 213.600,330.324 213.250,330.015 212.821 C 329.707 212.393,329.290 212.144,329.089 212.269 C 328.888 212.393,328.208 212.113,327.578 211.647 C 326.948 211.181,326.086 210.800,325.663 210.800 C 325.230 210.800,324.802 210.450,324.684 210.000 C 324.532 209.417,324.138 209.200,323.237 209.200 C 322.404 209.200,322.000 209.004,322.000 208.600 C 322.000 208.270,321.820 207.978,321.600 207.950 C 321.380 207.923,321.052 207.878,320.871 207.850 C 320.691 207.822,320.228 207.485,319.843 207.100 C 319.458 206.715,318.880 206.400,318.559 206.400 C 318.238 206.400,317.873 206.135,317.749 205.811 C 317.624 205.487,316.910 205.107,316.161 204.966 C 315.389 204.821,314.800 204.471,314.800 204.155 C 314.800 203.850,314.440 203.600,314.000 203.600 C 313.556 203.600,313.200 203.333,313.200 203.000 C 313.200 202.670,313.065 202.436,312.900 202.479 C 311.449 202.862,310.415 201.528,311.400 200.543 C 311.730 200.213,312.000 199.429,312.000 198.801 C 312.000 198.053,312.230 197.614,312.667 197.529 C 313.153 197.435,313.379 196.867,313.498 195.440 C 313.588 194.362,313.918 193.225,314.231 192.912 C 314.569 192.574,314.800 191.542,314.800 190.371 C 314.800 188.667,314.908 188.400,315.600 188.400 C 316.040 188.400,316.379 188.265,316.353 188.100 C 316.063 186.265,316.483 182.000,316.953 182.000 C 317.647 182.000,317.866 180.867,317.965 176.782 C 318.046 173.408,318.272 172.273,318.796 172.597 C 318.967 172.703,319.137 170.773,319.174 168.308 C 319.242 163.749,319.310 163.400,320.133 163.400 C 320.463 163.400,320.637 161.587,320.725 157.204 C 320.821 152.438,320.986 150.858,321.440 150.356 C 322.293 149.413,322.225 135.200,321.367 135.200 C 320.896 135.200,320.365 119.556,320.753 117.100 C 320.779 116.935,320.575 116.786,320.300 116.769 C 320.025 116.753,319.441 116.672,319.003 116.591 C 318.039 116.411,316.400 117.854,316.400 118.882 C 316.400 119.291,316.130 119.729,315.800 119.855 C 315.399 120.009,315.200 120.640,315.200 121.754 C 315.200 122.927,314.963 123.625,314.400 124.107 C 313.960 124.484,313.600 125.255,313.600 125.820 C 313.600 126.385,313.441 126.749,313.246 126.629 C 313.052 126.509,312.658 126.993,312.370 127.705 C 312.082 128.417,311.611 129.144,311.323 129.320 C 311.036 129.496,310.800 129.901,310.800 130.220 C 310.800 130.539,310.616 130.800,310.391 130.800 C 310.167 130.800,309.780 131.244,309.533 131.787 C 309.285 132.331,308.929 132.680,308.742 132.564 C 308.554 132.448,308.400 132.621,308.400 132.949 C 308.400 133.278,308.040 133.660,307.600 133.800 C 307.160 133.940,306.800 134.312,306.800 134.627 C 306.800 134.942,306.440 135.200,306.000 135.200 C 305.556 135.200,305.200 135.467,305.200 135.800 C 305.200 136.130,304.913 136.400,304.563 136.400 C 304.212 136.400,303.831 136.760,303.716 137.200 C 303.567 137.769,303.170 138.000,302.341 138.000 C 301.673 138.000,301.076 138.257,300.945 138.600 C 300.805 138.963,300.201 139.200,299.411 139.200 C 298.694 139.200,297.650 139.560,297.091 140.000 C 295.532 141.226,284.800 141.226,284.800 140.000 C 284.800 139.352,284.533 139.200,283.400 139.200 C 282.422 139.200,282.000 139.019,282.000 138.600 C 282.000 138.181,281.578 138.000,280.600 138.000 C 279.467 138.000,279.200 137.848,279.200 137.200 C 279.200 136.760,278.974 136.400,278.698 136.400 C 278.422 136.400,277.670 135.770,277.028 135.000 C 276.386 134.230,275.622 133.600,275.330 133.600 C 275.039 133.600,274.800 133.330,274.800 133.000 C 274.800 132.670,274.611 132.400,274.380 132.400 C 274.148 132.400,273.696 131.770,273.374 131.000 C 273.052 130.230,272.612 129.600,272.395 129.600 C 272.178 129.600,272.000 129.240,272.000 128.800 C 272.000 128.356,271.733 128.000,271.400 128.000 C 270.956 128.000,270.800 127.534,270.800 126.203 C 270.800 124.840,270.607 124.286,270.000 123.907 C 268.967 123.262,268.738 112.000,269.757 112.000 C 270.493 112.000,270.800 111.115,270.800 108.991 C 270.800 108.032,271.008 107.119,271.262 106.962 C 271.567 106.773,271.614 106.854,271.400 107.200 C 271.186 107.546,271.233 107.627,271.538 107.438 C 271.792 107.281,272.000 106.374,272.000 105.423 C 272.000 104.030,272.156 103.653,272.800 103.484 C 273.335 103.344,273.600 102.938,273.600 102.261 C 273.600 101.703,273.778 101.137,273.995 101.003 C 274.230 100.858,274.284 101.037,274.127 101.445 C 273.949 101.911,274.015 102.038,274.332 101.842 C 274.589 101.683,274.800 101.067,274.800 100.473 C 274.800 99.826,275.121 99.192,275.600 98.893 C 276.040 98.618,276.400 97.966,276.400 97.443 C 276.400 96.810,276.684 96.419,277.253 96.270 C 277.891 96.103,278.049 95.832,277.883 95.194 C 277.738 94.639,277.929 94.111,278.430 93.682 C 278.853 93.319,279.200 92.792,279.200 92.511 C 279.200 92.230,279.360 92.000,279.557 92.000 C 279.753 92.000,280.205 91.271,280.562 90.379 C 280.918 89.488,281.388 88.869,281.605 89.003 C 281.837 89.146,282.000 88.659,282.000 87.824 C 282.000 86.812,282.177 86.400,282.613 86.400 C 282.949 86.400,283.343 86.085,283.488 85.700 C 283.632 85.315,284.032 84.762,284.375 84.470 C 284.886 84.037,284.891 83.993,284.400 84.229 C 283.913 84.463,283.894 84.416,284.300 83.979 C 284.575 83.682,284.800 83.122,284.800 82.734 C 284.800 82.346,285.160 81.835,285.600 81.600 C 286.058 81.355,286.400 80.762,286.400 80.214 C 286.400 79.688,286.688 78.969,287.040 78.618 C 287.391 78.266,287.775 77.263,287.892 76.389 C 288.023 75.415,288.317 74.800,288.653 74.800 C 288.994 74.800,289.200 74.349,289.200 73.600 C 289.200 72.933,289.556 72.044,290.000 71.600 C 290.526 71.074,290.800 70.267,290.800 69.243 C 290.800 68.246,291.010 67.605,291.384 67.461 C 291.820 67.294,291.998 66.368,292.084 63.816 C 292.152 61.811,292.364 60.438,292.596 60.498 C 293.293 60.678,293.504 58.390,293.553 50.150 C 293.604 41.407,293.413 39.433,292.546 39.766 C 292.113 39.932,292.000 39.315,292.000 36.787 C 292.000 34.221,291.883 33.600,291.400 33.600 C 290.952 33.600,290.799 33.120,290.795 31.700 C 290.787 29.231,290.441 28.000,289.753 28.000 C 289.388 28.000,289.200 27.525,289.200 26.600 C 289.200 25.622,289.019 25.200,288.600 25.200 C 288.270 25.200,287.978 24.840,287.950 24.400 C 287.879 23.267,287.828 23.063,287.470 22.500 C 287.296 22.225,287.298 21.995,287.476 21.988 C 287.654 21.981,287.485 21.792,287.100 21.568 C 286.689 21.329,286.400 20.683,286.400 20.007 C 286.400 19.205,286.156 18.777,285.600 18.600 C 285.045 18.424,284.800 17.995,284.800 17.197 C 284.800 16.564,284.609 15.929,284.375 15.785 C 284.142 15.640,283.786 15.090,283.585 14.561 C 283.384 14.033,282.945 13.600,282.610 13.600 C 282.274 13.600,282.000 13.253,282.000 12.829 C 282.000 12.404,281.730 11.787,281.400 11.457 C 281.070 11.127,280.800 10.666,280.800 10.432 C 280.800 10.198,280.440 9.782,280.000 9.507 C 279.560 9.232,279.200 8.601,279.200 8.104 C 279.200 7.607,279.016 7.200,278.791 7.200 C 278.567 7.200,278.178 6.750,277.927 6.200 C 277.677 5.650,277.230 5.200,276.936 5.200 C 276.641 5.200,276.400 4.942,276.400 4.627 C 276.400 4.312,276.040 3.940,275.600 3.800 C 275.160 3.660,274.800 3.386,274.800 3.191 C 274.800 2.715,272.863 0.800,272.382 0.800 C 272.172 0.800,272.000 0.620,272.000 0.400 C 272.000 -0.756,268.381 -0.006,268.140 1.200 M124.200 289.570 C 123.760 289.745,122.500 290.018,121.400 290.174 C 118.977 290.520,113.200 293.231,113.200 294.022 C 113.200 294.230,113.022 294.400,112.803 294.400 C 112.218 294.400,109.903 296.963,108.885 298.738 C 107.013 302.005,106.000 304.118,106.000 304.760 C 106.000 305.168,105.730 305.726,105.400 306.000 C 105.070 306.274,104.797 306.971,104.793 307.549 C 104.789 308.127,104.401 309.950,103.930 311.600 C 103.077 314.592,103.074 314.744,102.999 368.400 C 102.951 402.948,103.025 415.687,103.206 404.000 C 103.362 393.990,103.514 380.445,103.544 373.900 L 103.600 362.000 128.000 362.000 L 152.400 362.000 152.454 396.300 C 152.491 420.026,152.623 429.490,152.880 427.000 C 153.360 422.341,152.939 317.466,152.426 314.200 C 151.854 310.552,150.801 306.246,150.378 305.820 C 150.170 305.611,150.000 305.173,150.000 304.846 C 150.000 302.450,144.639 295.045,141.356 292.907 C 137.147 290.166,127.439 288.277,124.200 289.570 M184.477 426.200 C 184.432 427.520,184.208 429.680,183.979 431.000 C 183.151 435.778,183.108 436.237,183.547 435.609 C 184.256 434.594,184.872 429.934,184.712 426.800 C 184.564 423.890,184.557 423.872,184.477 426.200 M103.219 429.411 C 103.230 429.625,103.591 431.330,104.023 433.200 L 104.806 436.600 104.597 433.658 C 104.439 431.444,103.118 427.372,103.219 429.411 M151.888 432.267 C 151.726 432.524,151.498 433.604,151.381 434.667 L 151.167 436.600 151.808 434.873 C 152.439 433.171,152.496 431.300,151.888 432.267 M72.469 438.000 C 72.456 438.990,72.785 440.610,73.200 441.600 C 73.615 442.590,73.965 443.073,73.978 442.674 C 73.990 442.274,73.820 441.612,73.601 441.201 C 73.381 440.791,73.042 439.498,72.847 438.328 L 72.494 436.200 72.469 438.000 M104.813 437.251 C 104.837 438.278,106.000 439.527,106.000 438.525 C 106.000 438.070,105.730 437.474,105.400 437.200 C 104.916 436.798,104.802 436.808,104.813 437.251 M150.787 437.700 C 150.780 438.195,150.510 438.949,150.187 439.376 C 149.864 439.804,149.608 440.614,149.618 441.176 C 149.632 442.041,149.731 441.952,150.255 440.600 C 150.994 438.695,151.388 436.800,151.045 436.800 C 150.910 436.800,150.794 437.205,150.787 437.700 M182.544 439.818 C 182.294 440.908,182.144 441.860,182.212 441.934 C 182.554 442.307,183.232 440.200,183.124 439.099 C 183.011 437.947,182.960 438.010,182.544 439.818 M106.025 440.301 C 106.011 440.577,106.360 441.475,106.800 442.296 C 107.431 443.473,107.600 443.604,107.600 442.918 C 107.600 442.439,107.407 441.928,107.172 441.783 C 106.937 441.637,106.588 441.132,106.397 440.659 C 106.207 440.187,106.039 440.026,106.025 440.301 M148.873 442.887 C 148.613 443.147,148.400 443.634,148.400 443.969 C 148.400 444.387,148.601 444.291,149.041 443.663 C 149.743 442.661,149.628 442.132,148.873 442.887 M107.600 444.204 C 107.600 444.670,110.616 448.724,112.148 450.319 C 113.918 452.160,116.400 453.828,116.400 453.177 C 116.400 452.959,115.995 452.625,115.500 452.436 C 114.358 451.998,110.470 447.930,109.063 445.700 C 108.088 444.155,107.600 443.656,107.600 444.204 M74.030 445.400 C 74.028 446.237,75.161 448.536,75.186 447.746 C 75.194 447.496,74.937 446.686,74.616 445.946 C 74.212 445.017,74.031 444.848,74.030 445.400 M147.493 445.708 C 147.112 446.178,146.800 446.730,146.800 446.935 C 146.800 447.140,147.181 446.824,147.646 446.233 C 148.111 445.642,148.423 445.089,148.339 445.006 C 148.255 444.922,147.875 445.238,147.493 445.708 M180.800 446.400 C 180.521 447.074,180.382 447.716,180.492 447.826 C 180.602 447.936,180.921 447.474,181.200 446.800 C 181.479 446.126,181.618 445.484,181.508 445.374 C 181.398 445.264,181.079 445.726,180.800 446.400 M145.700 448.331 C 145.315 448.734,144.623 449.499,144.162 450.031 C 143.701 450.564,142.915 451.270,142.416 451.600 C 141.916 451.930,141.123 452.470,140.654 452.800 C 140.184 453.130,139.124 453.744,138.298 454.164 C 137.471 454.585,136.865 454.998,136.950 455.083 C 137.538 455.671,143.428 451.612,145.501 449.191 C 146.866 447.596,147.014 446.959,145.700 448.331 M75.402 449.562 C 75.606 450.929,76.340 452.193,76.714 451.819 C 76.824 451.709,76.696 451.356,76.429 451.035 C 76.163 450.714,75.777 449.945,75.572 449.326 C 75.219 448.261,75.210 448.274,75.402 449.562 M180.000 449.110 C 180.000 449.573,179.820 450.064,179.600 450.200 C 179.098 450.510,179.076 451.200,179.568 451.200 C 180.002 451.200,180.585 448.852,180.238 448.505 C 180.107 448.374,180.000 448.646,180.000 449.110 M178.832 452.211 C 178.814 452.657,178.520 453.422,178.177 453.911 C 177.835 454.400,177.723 454.800,177.929 454.800 C 178.441 454.800,179.329 452.563,179.072 451.920 C 178.953 451.623,178.850 451.748,178.832 452.211 M76.811 453.400 C 76.808 453.840,77.163 454.740,77.600 455.400 C 78.611 456.927,78.614 456.560,77.609 454.344 C 77.125 453.276,76.815 452.910,76.811 453.400 M117.910 454.401 C 119.612 455.439,120.567 455.438,119.000 454.400 C 118.340 453.963,117.530 453.605,117.200 453.604 C 116.870 453.604,117.189 453.962,117.910 454.401 M122.200 455.809 C 123.300 456.115,124.740 456.351,125.400 456.335 C 126.364 456.311,126.207 456.204,124.600 455.791 C 121.729 455.053,119.536 455.070,122.200 455.809 M132.000 455.848 C 130.422 456.325,130.373 456.370,131.600 456.219 C 134.133 455.906,136.406 455.291,135.000 455.298 C 134.340 455.302,132.990 455.549,132.000 455.848 M176.272 457.657 C 175.667 458.836,174.824 460.340,174.398 461.000 C 173.096 463.020,172.193 464.852,173.091 463.654 C 174.028 462.403,175.477 460.046,176.075 458.800 C 176.339 458.250,176.808 457.495,177.118 457.123 C 177.428 456.751,177.612 456.237,177.527 455.981 C 177.441 455.724,176.877 456.479,176.272 457.657 M127.700 456.676 C 128.085 456.776,128.715 456.776,129.100 456.676 C 129.485 456.575,129.170 456.493,128.400 456.493 C 127.630 456.493,127.315 456.575,127.700 456.676 M78.480 457.000 C 79.195 458.760,80.051 460.385,80.367 460.579 C 80.800 460.847,79.759 458.599,78.894 457.400 C 78.577 456.960,78.390 456.780,78.480 457.000 M82.413 463.856 C 82.431 464.344,83.557 465.776,83.761 465.571 C 83.855 465.477,83.587 464.975,83.166 464.456 C 82.745 463.936,82.406 463.666,82.413 463.856 M171.600 465.112 C 171.600 465.357,170.070 467.102,168.200 468.989 C 166.330 470.875,164.800 472.544,164.800 472.697 C 164.800 473.081,169.390 468.539,170.879 466.682 C 171.549 465.846,171.985 465.051,171.848 464.915 C 171.712 464.778,171.600 464.867,171.600 465.112 M84.011 466.276 C 84.017 466.454,84.589 467.140,85.282 467.800 L 86.541 469.000 85.652 467.712 C 84.721 466.364,83.992 465.726,84.011 466.276 M90.600 473.118 C 91.260 473.811,91.946 474.383,92.124 474.389 C 92.674 474.408,92.036 473.679,90.688 472.748 L 89.400 471.859 90.600 473.118 M97.709 478.000 C 98.269 478.440,98.860 478.800,99.024 478.800 C 99.188 478.800,98.907 478.440,98.400 478.000 C 97.893 477.560,97.301 477.200,97.085 477.200 C 96.869 477.200,97.150 477.560,97.709 478.000 M100.576 479.413 C 101.004 479.736,101.533 480.000,101.753 480.000 C 101.973 480.000,101.804 479.736,101.376 479.413 C 100.949 479.090,100.420 478.825,100.200 478.825 C 99.980 478.825,100.149 479.090,100.576 479.413 M153.424 479.413 C 152.802 479.883,152.772 480.000,153.275 480.000 C 153.620 480.000,154.126 479.730,154.400 479.400 C 155.034 478.637,154.439 478.644,153.424 479.413 M149.400 481.050 L 148.200 481.634 149.400 481.389 C 150.060 481.254,150.771 480.976,150.980 480.772 C 151.531 480.233,150.819 480.358,149.400 481.050 M108.361 482.222 C 109.109 482.547,109.809 482.725,109.916 482.617 C 110.140 482.394,108.186 481.592,107.474 481.616 C 107.213 481.624,107.612 481.897,108.361 482.222 M145.800 482.186 C 145.140 482.488,144.870 482.743,145.200 482.753 C 145.530 482.763,146.250 482.514,146.800 482.200 C 148.073 481.472,147.380 481.462,145.800 482.186 M114.969 483.633 C 115.391 483.899,117.011 484.169,118.569 484.234 L 121.400 484.351 119.000 484.027 C 117.680 483.849,116.060 483.579,115.400 483.427 C 114.356 483.185,114.300 483.212,114.969 483.633 M139.104 483.429 C 138.978 483.556,137.643 483.817,136.137 484.010 L 133.400 484.362 136.531 484.183 C 139.432 484.018,142.331 483.244,140.167 483.212 C 139.708 483.205,139.230 483.303,139.104 483.429 " stroke="none" fill="#f16d41" fill-rule="evenodd"></path><path id="path2" d="M149.457 101.400 C 149.127 101.730,148.634 102.000,148.362 102.000 C 148.090 102.000,147.973 102.106,148.103 102.237 C 148.482 102.616,149.905 102.024,150.150 101.385 C 150.437 100.638,150.214 100.643,149.457 101.400 M142.406 106.937 C 142.403 107.343,142.040 107.769,141.600 107.884 C 140.721 108.114,140.504 108.673,141.300 108.656 C 142.156 108.637,143.140 107.349,142.759 106.747 C 142.491 106.324,142.411 106.366,142.406 106.937 M125.200 124.424 C 125.200 124.880,125.381 125.135,125.607 124.996 C 125.830 124.858,125.919 124.593,125.804 124.407 C 125.689 124.221,125.821 123.977,126.098 123.866 C 126.401 123.744,126.322 123.651,125.900 123.632 C 125.450 123.611,125.200 123.894,125.200 124.424 M93.748 202.592 C 93.410 203.472,93.781 203.746,94.362 203.045 C 94.690 202.651,94.707 202.389,94.417 202.210 C 94.184 202.067,93.883 202.238,93.748 202.592 M320.000 206.953 C 320.000 207.283,320.180 207.664,320.400 207.800 C 320.620 207.936,320.800 207.777,320.800 207.447 C 320.800 207.117,320.620 206.736,320.400 206.600 C 320.180 206.464,320.000 206.623,320.000 206.953 M339.823 218.567 C 340.661 219.180,341.040 219.113,340.616 218.427 C 340.471 218.192,340.059 218.000,339.700 218.000 C 339.154 218.000,339.174 218.093,339.823 218.567 M59.700 222.265 C 59.425 222.376,59.206 222.767,59.213 223.133 C 59.224 223.738,59.270 223.741,59.713 223.165 C 59.981 222.816,60.470 222.425,60.800 222.296 C 61.333 222.089,61.333 222.063,60.800 222.063 C 60.470 222.063,59.975 222.154,59.700 222.265 M350.012 224.036 C 350.005 224.385,350.450 224.877,351.000 225.127 C 351.608 225.404,352.000 225.430,352.000 225.191 C 352.000 224.976,351.739 224.800,351.420 224.800 C 351.101 224.800,350.656 224.485,350.432 224.100 C 350.085 223.504,350.023 223.495,350.012 224.036 M364.300 232.733 C 365.120 233.592,365.317 233.569,364.967 232.657 C 364.828 232.296,364.464 232.000,364.157 232.000 C 363.733 232.000,363.767 232.175,364.300 232.733 M39.612 233.984 C 39.288 234.189,39.127 234.461,39.254 234.588 C 39.569 234.903,40.800 234.401,40.800 233.957 C 40.800 233.501,40.360 233.511,39.612 233.984 M29.378 239.635 C 29.231 239.874,29.321 240.279,29.579 240.535 C 29.936 240.890,29.984 240.833,29.779 240.295 C 29.575 239.760,29.666 239.650,30.155 239.838 C 30.510 239.974,30.800 239.886,30.800 239.643 C 30.800 239.072,29.730 239.066,29.378 239.635 M383.233 243.713 C 383.325 243.775,383.685 244.043,384.033 244.307 C 384.542 244.693,384.667 244.671,384.667 244.194 C 384.667 243.867,384.307 243.600,383.867 243.600 C 383.427 243.600,383.142 243.651,383.233 243.713 M394.870 254.515 C 395.413 255.018,395.777 255.693,395.678 256.015 C 395.538 256.475,395.609 256.497,396.011 256.119 C 396.529 255.632,395.115 253.624,394.242 253.607 C 394.044 253.603,394.327 254.012,394.870 254.515 M5.200 267.224 C 5.200 267.680,5.381 267.935,5.607 267.796 C 5.830 267.658,5.919 267.393,5.804 267.207 C 5.689 267.021,5.821 266.777,6.098 266.666 C 6.401 266.544,6.322 266.451,5.900 266.432 C 5.450 266.411,5.200 266.694,5.200 267.224 M3.867 272.267 C 3.720 272.413,3.615 272.998,3.634 273.567 C 3.668 274.581,3.675 274.579,4.021 273.420 C 4.385 272.203,4.331 271.802,3.867 272.267 M3.693 405.561 L 3.610 466.522 4.452 467.883 C 4.995 468.762,5.316 470.000,5.357 471.374 C 5.393 472.572,5.679 473.813,6.011 474.213 C 6.335 474.603,6.546 475.239,6.481 475.626 C 6.415 476.013,6.559 476.451,6.800 476.600 C 7.110 476.792,7.086 477.066,6.719 477.536 C 6.264 478.118,6.280 478.138,6.847 477.695 C 7.687 477.040,8.596 478.008,8.279 479.221 C 8.107 479.876,8.173 479.954,8.599 479.601 C 9.171 479.126,9.246 480.087,8.682 480.652 C 8.282 481.052,9.215 482.038,9.706 481.734 C 9.934 481.593,10.364 481.810,10.661 482.215 C 11.125 482.850,11.200 482.862,11.200 482.300 C 11.200 481.941,11.411 481.517,11.668 481.358 C 11.988 481.160,12.050 481.292,11.866 481.771 C 11.673 482.275,11.830 482.535,12.421 482.690 C 12.874 482.808,13.168 483.106,13.074 483.353 C 12.947 483.681,26.095 483.772,62.651 483.695 C 106.821 483.603,112.400 483.659,112.400 484.195 C 112.400 484.724,114.261 484.800,127.200 484.800 C 140.103 484.800,142.000 484.723,142.000 484.199 C 142.000 483.665,156.122 483.609,268.149 483.699 C 361.573 483.774,394.253 483.683,394.125 483.349 C 394.030 483.101,394.420 482.781,394.993 482.638 C 395.565 482.494,395.935 482.219,395.816 482.026 C 395.697 481.833,395.918 481.758,396.308 481.860 C 396.739 481.973,397.407 481.618,398.009 480.958 C 398.554 480.360,398.775 480.001,398.500 480.159 C 398.225 480.318,398.000 480.257,398.000 480.024 C 398.000 479.791,398.177 479.600,398.392 479.600 C 398.608 479.600,398.898 479.150,399.036 478.600 C 399.174 478.050,399.447 477.600,399.643 477.600 C 399.851 477.600,400.000 453.381,400.000 419.800 L 400.000 362.000 365.400 362.000 L 330.800 362.000 330.787 366.500 C 330.609 430.306,329.989 479.749,329.359 480.445 C 328.491 481.404,299.663 481.640,298.878 480.694 C 298.592 480.350,298.366 461.338,298.167 421.094 L 297.876 362.000 273.591 362.000 L 249.306 362.000 249.018 420.700 C 248.773 470.664,248.644 479.534,248.156 480.300 L 247.582 481.200 232.655 481.200 L 217.728 481.200 217.264 480.181 C 216.921 479.428,216.800 467.818,216.800 435.647 C 216.800 411.713,216.681 385.351,216.535 377.065 L 216.270 362.000 200.800 362.000 L 185.331 362.000 185.065 383.066 C 184.919 394.652,184.797 410.177,184.794 417.566 C 184.789 428.519,184.671 431.443,184.155 433.400 C 183.807 434.720,183.404 437.007,183.259 438.483 C 183.113 439.958,182.771 441.389,182.497 441.663 C 182.224 441.936,181.992 442.709,181.982 443.380 C 181.973 444.051,181.689 445.320,181.353 446.200 C 181.016 447.080,180.559 448.565,180.338 449.500 C 180.116 450.435,179.770 451.200,179.568 451.200 C 179.365 451.200,179.200 451.552,179.200 451.981 C 179.200 452.970,178.379 454.800,177.936 454.800 C 177.751 454.800,177.600 455.239,177.600 455.776 C 177.600 456.313,177.417 456.866,177.194 457.004 C 176.971 457.142,176.522 457.827,176.196 458.527 C 175.323 460.407,173.825 462.819,172.854 463.909 C 172.384 464.436,172.000 465.037,172.000 465.244 C 172.000 465.909,163.180 474.400,162.489 474.400 C 162.318 474.400,161.870 474.760,161.493 475.200 C 161.116 475.640,160.536 476.000,160.204 476.000 C 159.872 476.000,159.600 476.178,159.600 476.395 C 159.600 476.612,158.992 477.043,158.249 477.354 C 157.506 477.664,156.775 478.117,156.625 478.359 C 156.475 478.602,156.025 478.800,155.625 478.800 C 155.225 478.800,154.674 479.070,154.400 479.400 C 154.126 479.730,153.609 480.006,153.251 480.014 C 152.893 480.021,151.880 480.375,151.000 480.800 C 150.120 481.225,149.073 481.579,148.674 481.586 C 148.274 481.594,147.554 481.812,147.074 482.071 C 146.593 482.331,144.940 482.769,143.400 483.046 C 141.860 483.322,139.790 483.732,138.800 483.957 C 136.327 484.518,117.782 484.522,115.997 483.961 C 115.229 483.720,113.340 483.283,111.800 482.990 C 108.157 482.296,104.750 481.310,104.243 480.803 C 104.021 480.581,103.573 480.400,103.246 480.400 C 102.659 480.400,99.560 479.098,98.400 478.364 C 98.070 478.155,97.215 477.715,96.500 477.387 C 95.785 477.058,95.200 476.612,95.200 476.395 C 95.200 476.178,94.958 476.000,94.662 476.000 C 94.366 476.000,93.798 475.640,93.400 475.200 C 93.002 474.760,92.503 474.400,92.291 474.400 C 91.862 474.400,84.000 466.656,84.000 466.233 C 84.000 466.087,83.640 465.580,83.200 465.108 C 82.760 464.636,82.400 464.013,82.400 463.725 C 82.400 463.436,82.222 463.200,82.005 463.200 C 81.788 463.200,81.339 462.615,81.006 461.900 C 80.673 461.185,79.591 459.094,78.600 457.252 C 77.610 455.411,76.800 453.498,76.800 453.001 C 76.800 452.504,76.535 451.878,76.211 451.609 C 75.886 451.340,75.502 450.463,75.357 449.660 C 75.212 448.857,74.847 447.714,74.547 447.120 C 74.246 446.526,74.000 445.497,74.000 444.835 C 74.000 444.172,73.640 442.716,73.200 441.600 C 72.701 440.335,72.400 438.627,72.400 437.065 C 72.400 435.687,72.219 434.379,71.997 434.157 C 71.086 433.246,70.820 424.213,70.810 393.900 L 70.800 362.000 38.600 362.000 L 6.400 362.000 6.353 360.500 C 6.306 359.007,6.304 359.006,6.000 360.200 C 5.701 361.377,5.693 361.369,5.595 359.800 L 5.495 358.200 5.200 359.600 L 4.905 361.000 4.853 359.276 C 4.822 358.269,4.638 357.653,4.410 357.794 C 4.164 357.946,3.975 355.552,3.898 351.318 C 3.831 347.623,3.739 372.032,3.693 405.561 M103.465 383.066 C 103.024 418.064,103.100 428.880,103.793 429.869 C 104.120 430.335,104.504 432.040,104.646 433.658 C 104.789 435.276,105.128 436.870,105.399 437.200 C 105.670 437.530,105.998 438.497,106.129 439.350 C 106.259 440.202,106.643 441.206,106.983 441.581 C 107.322 441.956,107.600 442.566,107.600 442.936 C 107.600 444.461,114.227 452.400,115.500 452.400 C 115.789 452.400,116.129 452.670,116.255 453.000 C 116.382 453.330,116.746 453.600,117.064 453.600 C 117.381 453.600,118.307 453.945,119.121 454.367 C 121.779 455.746,127.999 456.623,130.906 456.030 C 132.278 455.750,134.210 455.381,135.200 455.210 C 136.951 454.909,138.542 454.190,141.000 452.588 C 142.733 451.459,143.153 451.114,144.128 450.024 C 144.607 449.487,145.405 448.656,145.900 448.178 C 146.395 447.700,146.800 447.131,146.800 446.915 C 146.800 446.699,147.160 446.107,147.600 445.600 C 148.040 445.093,148.400 444.367,148.400 443.988 C 148.400 443.608,148.670 443.074,149.000 442.800 C 149.330 442.526,149.600 441.824,149.600 441.240 C 149.600 440.656,149.849 439.822,150.154 439.387 C 150.459 438.952,150.917 437.248,151.173 435.599 C 151.429 433.951,151.809 432.431,152.019 432.221 C 152.255 431.985,152.400 418.507,152.400 396.920 L 152.400 362.000 128.065 362.000 L 103.731 362.000 103.465 383.066 M11.228 484.966 C 10.596 485.728,10.785 486.104,11.560 485.625 C 11.856 485.442,12.024 485.072,11.934 484.802 C 11.818 484.454,11.614 484.501,11.228 484.966 M394.618 485.229 C 394.762 485.462,394.981 485.553,395.103 485.430 C 395.226 485.307,395.568 485.407,395.863 485.652 C 396.269 485.989,396.400 485.961,396.400 485.536 C 396.400 485.223,395.949 484.937,395.378 484.890 C 394.744 484.837,394.456 484.966,394.618 485.229 " stroke="none" fill="#d53e33" fill-rule="evenodd"></path><path id="path3" d="M3.603 467.657 C 3.601 468.271,3.876 468.820,4.257 468.967 C 5.227 469.339,5.253 469.100,4.386 467.784 L 3.605 466.600 3.603 467.657 M5.200 473.887 C 5.200 474.382,5.531 474.793,6.037 474.926 C 6.856 475.140,6.858 475.126,6.141 474.272 C 5.738 473.792,5.362 473.325,5.304 473.233 C 5.247 473.142,5.200 473.436,5.200 473.887 M6.400 476.954 C 6.400 477.402,6.577 477.541,6.900 477.347 C 7.293 477.110,7.292 477.179,6.895 477.670 C 6.364 478.326,7.156 479.511,7.737 478.930 C 8.025 478.642,8.129 479.302,8.015 480.701 C 7.975 481.205,8.220 481.710,8.571 481.844 C 8.917 481.977,9.203 482.471,9.206 482.943 C 9.217 484.488,10.670 485.570,11.551 484.689 C 11.883 484.357,12.000 484.409,12.000 484.887 C 12.000 485.242,11.775 485.624,11.500 485.735 C 11.210 485.852,11.304 485.950,11.724 485.968 C 12.125 485.986,12.331 486.188,12.186 486.423 C 11.769 487.097,12.358 488.800,13.008 488.800 C 13.333 488.800,13.600 489.160,13.600 489.600 C 13.600 490.133,13.867 490.400,14.400 490.400 C 14.933 490.400,15.200 490.667,15.200 491.200 C 15.200 491.644,15.467 492.000,15.800 492.000 C 16.130 492.000,16.400 492.270,16.400 492.600 C 16.400 492.933,16.756 493.200,17.200 493.200 C 17.733 493.200,18.000 493.467,18.000 494.000 C 18.000 494.452,18.267 494.800,18.613 494.800 C 18.949 494.800,19.329 495.070,19.455 495.400 C 19.582 495.730,19.915 496.000,20.196 496.000 C 20.477 496.000,20.801 496.360,20.916 496.800 C 21.068 497.383,21.462 497.600,22.363 497.600 C 23.179 497.600,23.600 497.798,23.600 498.182 C 23.600 498.530,24.162 498.869,25.000 499.026 C 25.802 499.177,26.400 499.526,26.400 499.845 C 26.400 500.150,26.760 500.400,27.200 500.400 C 27.733 500.400,28.000 500.667,28.000 501.200 C 28.000 501.848,28.267 502.000,29.400 502.000 C 30.378 502.000,30.800 502.181,30.800 502.600 C 30.800 503.019,31.222 503.200,32.200 503.200 C 33.333 503.200,33.600 503.352,33.600 504.000 C 33.600 504.533,33.867 504.800,34.400 504.800 C 34.844 504.800,35.200 505.067,35.200 505.400 C 35.200 505.819,35.622 506.000,36.600 506.000 C 37.733 506.000,38.000 506.152,38.000 506.800 C 38.000 507.448,38.267 507.600,39.400 507.600 C 40.330 507.600,40.800 507.787,40.800 508.157 C 40.800 508.769,41.641 509.200,42.833 509.200 C 43.255 509.200,43.600 509.470,43.600 509.800 C 43.600 510.130,43.939 510.400,44.353 510.400 C 44.774 510.400,45.200 510.759,45.319 511.211 C 45.436 511.658,45.682 511.996,45.866 511.964 C 46.968 511.770,48.000 512.078,48.000 512.600 C 48.000 513.015,48.417 513.200,49.353 513.200 C 50.370 513.200,50.759 513.399,50.916 514.000 C 51.068 514.583,51.462 514.800,52.363 514.800 C 53.196 514.800,53.600 514.996,53.600 515.400 C 53.600 515.733,53.956 516.000,54.400 516.000 C 54.902 516.000,55.200 516.267,55.200 516.715 C 55.200 517.231,55.553 517.457,56.471 517.527 C 57.203 517.582,57.978 517.962,58.301 518.422 C 58.608 518.862,59.072 519.195,59.330 519.163 C 60.359 519.036,60.800 519.228,60.800 519.800 C 60.800 520.130,61.064 520.400,61.386 520.400 C 61.708 520.400,62.164 520.758,62.398 521.196 C 62.632 521.634,62.954 521.973,63.112 521.949 C 64.218 521.782,65.200 522.089,65.200 522.600 C 65.200 523.019,65.622 523.200,66.600 523.200 C 67.733 523.200,68.000 523.352,68.000 524.000 C 68.000 524.648,68.267 524.800,69.400 524.800 C 70.378 524.800,70.800 524.981,70.800 525.400 C 70.800 525.730,71.030 526.000,71.311 526.000 C 71.592 526.000,72.130 526.360,72.507 526.800 C 72.884 527.240,73.623 527.600,74.149 527.600 C 74.775 527.600,75.180 527.881,75.319 528.411 C 75.436 528.858,75.682 529.196,75.866 529.164 C 76.968 528.970,78.000 529.278,78.000 529.800 C 78.000 530.219,78.422 530.400,79.400 530.400 C 80.533 530.400,80.800 530.552,80.800 531.200 C 80.800 531.733,81.067 532.000,81.600 532.000 C 82.044 532.000,82.400 532.267,82.400 532.600 C 82.400 533.019,82.822 533.200,83.800 533.200 C 84.933 533.200,85.200 533.352,85.200 534.000 C 85.200 534.648,85.467 534.800,86.600 534.800 C 87.578 534.800,88.000 534.981,88.000 535.400 C 88.000 535.819,88.422 536.000,89.400 536.000 C 90.533 536.000,90.800 536.152,90.800 536.800 C 90.800 537.252,91.067 537.600,91.413 537.600 C 91.749 537.600,92.127 537.865,92.251 538.189 C 92.376 538.513,93.090 538.893,93.839 539.034 C 94.611 539.179,95.200 539.529,95.200 539.845 C 95.200 540.213,95.672 540.400,96.600 540.400 C 97.733 540.400,98.000 540.552,98.000 541.200 C 98.000 541.733,98.267 542.000,98.800 542.000 C 99.240 542.000,99.555 542.225,99.500 542.500 C 99.437 542.813,99.962 543.047,100.900 543.124 C 102.075 543.221,102.400 543.416,102.400 544.024 C 102.400 544.644,102.681 544.800,103.800 544.800 C 104.778 544.800,105.200 544.981,105.200 545.400 C 105.200 545.819,105.622 546.000,106.600 546.000 C 107.733 546.000,108.000 546.152,108.000 546.800 C 108.000 547.333,108.267 547.600,108.800 547.600 C 109.240 547.600,109.555 547.811,109.500 548.069 C 109.445 548.327,110.062 548.732,110.871 548.969 C 111.681 549.206,112.311 549.580,112.271 549.800 C 112.232 550.020,112.875 550.256,113.700 550.324 C 114.875 550.421,115.200 550.616,115.200 551.224 C 115.200 551.844,115.481 552.000,116.600 552.000 C 117.578 552.000,118.000 552.181,118.000 552.600 C 118.000 552.933,118.356 553.200,118.800 553.200 C 119.316 553.200,119.600 553.467,119.600 553.950 C 119.600 554.496,119.890 554.700,120.669 554.700 C 121.257 554.700,121.951 554.993,122.213 555.350 C 122.477 555.711,123.246 556.000,123.944 556.000 C 124.933 556.000,125.200 556.170,125.200 556.800 C 125.200 557.448,125.467 557.600,126.600 557.600 C 127.591 557.600,128.000 557.779,128.000 558.213 C 128.000 558.550,128.405 558.989,128.900 559.188 C 129.395 559.387,129.620 559.563,129.400 559.581 C 128.538 559.649,130.266 560.388,131.300 560.394 C 131.905 560.397,132.379 560.535,132.353 560.700 C 132.195 561.701,132.528 562.000,133.800 562.000 C 134.725 562.000,135.200 562.188,135.200 562.553 C 135.200 562.858,135.565 563.202,136.011 563.319 C 136.458 563.436,136.773 563.772,136.711 564.066 C 136.606 564.570,136.791 564.641,138.500 564.754 C 138.885 564.779,139.200 565.070,139.200 565.400 C 139.200 565.833,139.644 566.000,140.800 566.000 C 141.680 566.000,142.379 566.135,142.353 566.300 C 142.195 567.301,142.528 567.600,143.800 567.600 C 144.814 567.600,145.200 567.776,145.200 568.237 C 145.200 568.588,145.560 568.969,146.000 569.084 C 146.440 569.199,146.800 569.542,146.800 569.847 C 146.800 570.192,147.241 570.400,147.973 570.400 C 148.808 570.400,149.222 570.639,149.409 571.229 C 149.554 571.685,149.881 571.978,150.136 571.881 C 150.844 571.612,152.485 572.339,152.202 572.797 C 152.050 573.042,152.587 573.200,153.576 573.200 C 154.933 573.200,155.200 573.331,155.200 574.000 C 155.200 574.452,155.467 574.800,155.813 574.800 C 156.149 574.800,156.529 575.070,156.655 575.400 C 156.784 575.734,157.378 576.000,157.996 576.000 C 158.770 576.000,159.170 576.242,159.316 576.800 C 159.463 577.364,159.862 577.600,160.666 577.600 C 161.374 577.600,161.997 577.904,162.307 578.400 C 162.626 578.910,163.240 579.200,164.003 579.200 C 164.800 579.200,165.200 579.400,165.200 579.800 C 165.200 580.130,165.458 580.400,165.773 580.400 C 166.088 580.400,166.462 580.765,166.603 581.211 C 166.745 581.656,167.072 581.995,167.330 581.963 C 168.517 581.817,169.200 582.049,169.200 582.600 C 169.200 583.022,169.626 583.200,170.637 583.200 C 171.738 583.200,172.124 583.387,172.284 584.000 C 172.399 584.440,172.742 584.800,173.047 584.800 C 173.351 584.800,173.600 585.070,173.600 585.400 C 173.600 585.815,174.017 586.000,174.953 586.000 C 175.970 586.000,176.359 586.199,176.516 586.800 C 176.666 587.374,177.062 587.600,177.916 587.600 C 178.770 587.600,179.166 587.826,179.316 588.400 C 179.468 588.983,179.862 589.200,180.763 589.200 C 181.596 589.200,182.000 589.396,182.000 589.800 C 182.000 590.233,182.444 590.400,183.600 590.400 C 184.933 590.400,185.200 590.533,185.200 591.200 C 185.200 591.843,185.467 592.000,186.557 592.000 C 187.395 592.000,188.003 592.230,188.145 592.600 C 188.317 593.049,189.034 593.200,190.987 593.200 C 192.462 593.200,193.600 593.374,193.600 593.600 C 193.600 593.856,197.200 594.000,203.600 594.000 C 210.000 594.000,213.600 593.856,213.600 593.600 C 213.600 593.371,214.800 593.200,216.400 593.200 C 218.622 593.200,219.200 593.076,219.200 592.600 C 219.200 592.181,219.622 592.000,220.600 592.000 C 221.733 592.000,222.000 591.848,222.000 591.200 C 222.000 590.552,222.267 590.400,223.400 590.400 C 224.378 590.400,224.800 590.219,224.800 589.800 C 224.800 589.378,225.226 589.200,226.237 589.200 C 227.338 589.200,227.724 589.013,227.884 588.400 C 228.031 587.839,228.430 587.600,229.220 587.600 C 229.995 587.600,230.425 587.350,230.600 586.800 C 230.779 586.237,231.205 586.000,232.040 586.000 C 232.724 586.000,233.322 585.747,233.455 585.400 C 233.582 585.070,233.936 584.800,234.243 584.800 C 234.549 584.800,234.800 584.440,234.800 584.000 C 234.800 583.356,235.067 583.200,236.167 583.200 C 236.918 583.200,237.601 582.996,237.684 582.747 C 237.768 582.497,238.458 582.084,239.218 581.827 C 239.978 581.571,240.555 581.145,240.500 580.880 C 240.445 580.616,240.760 580.400,241.200 580.400 C 241.644 580.400,242.000 580.133,242.000 579.800 C 242.000 579.396,242.404 579.200,243.237 579.200 C 244.138 579.200,244.532 578.983,244.684 578.400 C 244.843 577.794,245.230 577.600,246.284 577.600 C 247.338 577.600,247.725 577.406,247.884 576.800 C 247.999 576.360,248.418 576.000,248.814 576.000 C 249.904 576.000,250.823 575.561,250.574 575.158 C 250.452 574.961,250.723 574.800,251.176 574.800 C 251.733 574.800,252.000 574.541,252.000 574.000 C 252.000 573.352,252.267 573.200,253.400 573.200 C 254.378 573.200,254.800 573.019,254.800 572.600 C 254.800 572.270,255.160 571.977,255.600 571.950 C 257.187 571.851,258.140 571.351,257.798 570.797 C 257.680 570.606,258.221 570.393,259.000 570.325 C 259.779 570.256,260.368 570.041,260.308 569.846 C 260.249 569.651,260.605 569.342,261.100 569.159 C 261.595 568.976,262.000 568.550,262.000 568.213 C 262.000 567.779,262.409 567.600,263.400 567.600 C 264.519 567.600,264.800 567.444,264.800 566.824 C 264.800 566.216,265.125 566.021,266.300 565.924 C 267.238 565.847,267.763 565.613,267.700 565.300 C 267.609 564.846,268.616 564.603,269.900 564.770 C 270.351 564.829,270.575 564.309,270.447 563.500 C 270.421 563.335,270.760 563.200,271.200 563.200 C 271.644 563.200,272.000 562.933,272.000 562.600 C 272.000 562.081,273.255 561.756,274.500 561.953 C 274.665 561.979,274.800 561.640,274.800 561.200 C 274.800 560.552,275.067 560.400,276.200 560.400 C 277.178 560.400,277.600 560.219,277.600 559.800 C 277.600 559.467,277.956 559.200,278.400 559.200 C 278.933 559.200,279.200 558.933,279.200 558.400 C 279.200 557.752,279.467 557.600,280.600 557.600 C 281.733 557.600,282.000 557.448,282.000 556.800 C 282.000 556.152,282.267 556.000,283.400 556.000 C 284.378 556.000,284.800 555.819,284.800 555.400 C 284.800 554.889,285.782 554.582,286.888 554.749 C 287.046 554.773,287.368 554.434,287.602 553.996 C 287.836 553.558,288.292 553.200,288.614 553.200 C 288.936 553.200,289.200 552.930,289.200 552.600 C 289.200 552.181,289.622 552.000,290.600 552.000 C 291.733 552.000,292.000 551.848,292.000 551.200 C 292.000 550.552,292.267 550.400,293.400 550.400 C 294.328 550.400,294.800 550.213,294.800 549.845 C 294.800 549.529,295.389 549.179,296.161 549.034 C 296.910 548.893,297.624 548.513,297.749 548.189 C 297.873 547.865,298.251 547.600,298.587 547.600 C 298.933 547.600,299.200 547.252,299.200 546.800 C 299.200 546.152,299.467 546.000,300.600 546.000 C 301.578 546.000,302.000 545.819,302.000 545.400 C 302.000 544.981,302.422 544.800,303.400 544.800 C 304.533 544.800,304.800 544.648,304.800 544.000 C 304.800 543.467,305.067 543.200,305.600 543.200 C 306.044 543.200,306.400 542.933,306.400 542.600 C 306.400 542.181,306.822 542.000,307.800 542.000 C 308.933 542.000,309.200 541.848,309.200 541.200 C 309.200 540.552,309.467 540.400,310.600 540.400 C 311.578 540.400,312.000 540.219,312.000 539.800 C 312.000 539.467,312.356 539.200,312.800 539.200 C 313.240 539.200,313.960 538.840,314.400 538.400 C 314.840 537.960,315.470 537.600,315.800 537.600 C 316.133 537.600,316.400 537.244,316.400 536.800 C 316.400 536.152,316.667 536.000,317.800 536.000 C 318.778 536.000,319.200 535.819,319.200 535.400 C 319.200 534.981,319.622 534.800,320.600 534.800 C 321.733 534.800,322.000 534.648,322.000 534.000 C 322.000 533.352,322.267 533.200,323.400 533.200 C 324.378 533.200,324.800 533.019,324.800 532.600 C 324.800 532.267,325.156 532.000,325.600 532.000 C 326.133 532.000,326.400 531.733,326.400 531.200 C 326.400 530.552,326.667 530.400,327.800 530.400 C 328.778 530.400,329.200 530.219,329.200 529.800 C 329.200 529.278,330.232 528.970,331.334 529.164 C 331.518 529.196,331.764 528.858,331.881 528.411 C 332.069 527.694,333.149 527.339,334.500 527.553 C 334.665 527.579,334.800 527.240,334.800 526.800 C 334.800 526.267,335.067 526.000,335.600 526.000 C 336.044 526.000,336.400 525.733,336.400 525.400 C 336.400 524.981,336.822 524.800,337.800 524.800 C 338.933 524.800,339.200 524.648,339.200 524.000 C 339.200 523.352,339.467 523.200,340.600 523.200 C 341.578 523.200,342.000 523.019,342.000 522.600 C 342.000 522.267,342.356 522.000,342.800 522.000 C 343.333 522.000,343.600 521.733,343.600 521.200 C 343.600 520.576,343.867 520.400,344.813 520.400 C 345.521 520.400,346.121 520.151,346.255 519.800 C 346.382 519.470,346.812 519.200,347.210 519.200 C 348.362 519.200,349.200 518.761,349.200 518.157 C 349.200 517.683,350.512 517.365,351.700 517.553 C 351.865 517.579,352.000 517.240,352.000 516.800 C 352.000 516.267,352.267 516.000,352.800 516.000 C 353.244 516.000,353.600 515.733,353.600 515.400 C 353.600 514.996,354.004 514.800,354.837 514.800 C 355.738 514.800,356.132 514.583,356.284 514.000 C 356.469 513.294,357.559 512.941,358.900 513.153 C 359.065 513.179,359.200 512.930,359.200 512.600 C 359.200 512.081,360.271 511.792,361.054 512.100 C 361.194 512.155,361.458 511.795,361.641 511.300 C 361.837 510.771,362.309 510.400,362.787 510.400 C 363.243 510.400,363.600 510.137,363.600 509.800 C 363.600 509.396,364.004 509.200,364.837 509.200 C 365.738 509.200,366.132 508.983,366.284 508.400 C 366.434 507.826,366.830 507.600,367.684 507.600 C 368.538 507.600,368.934 507.374,369.084 506.800 C 369.272 506.081,369.928 505.834,371.500 505.893 C 371.775 505.903,372.000 505.661,372.000 505.356 C 372.000 505.050,372.287 504.800,372.637 504.800 C 372.988 504.800,373.369 504.440,373.484 504.000 C 373.641 503.399,374.030 503.200,375.047 503.200 C 375.983 503.200,376.400 503.015,376.400 502.600 C 376.400 502.089,377.032 501.898,378.280 502.030 C 378.434 502.046,378.699 501.686,378.867 501.230 C 379.040 500.763,379.530 500.400,379.987 500.400 C 380.434 500.400,380.800 500.150,380.800 499.845 C 380.800 499.526,381.398 499.177,382.200 499.026 C 383.038 498.869,383.600 498.530,383.600 498.182 C 383.600 497.862,383.870 497.577,384.200 497.550 C 384.530 497.523,384.980 497.455,385.200 497.400 C 385.420 497.345,385.780 497.277,386.000 497.250 C 386.220 497.223,386.400 496.951,386.400 496.647 C 386.400 496.342,386.761 495.999,387.202 495.884 C 387.739 495.743,387.922 495.463,387.757 495.032 C 387.574 494.555,387.682 494.456,388.179 494.647 C 388.648 494.827,388.914 494.649,389.071 494.052 C 389.193 493.583,389.497 493.197,389.747 493.193 C 390.321 493.184,392.000 491.433,392.000 490.844 C 392.000 490.600,392.276 490.400,392.613 490.400 C 392.949 490.400,393.343 490.085,393.488 489.700 C 393.632 489.315,394.016 488.801,394.340 488.558 C 394.665 488.315,394.827 487.848,394.701 487.520 C 394.574 487.188,394.802 486.687,395.215 486.389 C 395.926 485.877,395.912 484.960,395.200 485.400 C 395.010 485.517,394.733 485.415,394.584 485.174 C 394.420 484.908,394.606 484.766,395.056 484.814 C 396.871 485.005,397.684 484.797,397.455 484.200 C 397.329 483.870,397.399 483.600,397.613 483.600 C 397.826 483.600,398.000 483.240,398.000 482.800 C 398.000 482.356,398.267 482.000,398.600 482.000 C 399.019 482.000,399.200 481.578,399.200 480.600 C 399.200 479.830,399.380 479.200,399.600 479.200 C 399.820 479.200,400.000 478.840,400.000 478.400 C 400.000 477.268,399.335 477.406,399.036 478.600 C 398.898 479.150,398.608 479.600,398.392 479.600 C 398.177 479.600,398.000 479.791,398.000 480.024 C 398.000 480.257,398.225 480.318,398.500 480.159 C 398.775 480.001,398.554 480.360,398.009 480.958 C 397.407 481.618,396.739 481.973,396.308 481.860 C 395.918 481.758,395.697 481.833,395.816 482.026 C 395.935 482.219,395.565 482.494,394.993 482.638 C 394.420 482.781,394.030 483.101,394.125 483.349 C 394.253 483.683,361.573 483.774,268.149 483.699 C 156.122 483.609,142.000 483.665,142.000 484.199 C 142.000 484.723,140.103 484.800,127.200 484.800 C 114.261 484.800,112.400 484.724,112.400 484.195 C 112.400 483.659,106.821 483.603,62.651 483.695 C 26.095 483.772,12.947 483.681,13.074 483.353 C 13.168 483.106,12.874 482.808,12.421 482.690 C 11.830 482.535,11.673 482.275,11.866 481.771 C 12.050 481.292,11.988 481.160,11.668 481.358 C 11.411 481.517,11.200 481.941,11.200 482.300 C 11.200 482.877,11.140 482.871,10.685 482.248 C 10.401 481.861,9.906 481.601,9.585 481.672 C 9.263 481.742,9.049 481.562,9.110 481.270 C 9.176 480.953,9.031 480.857,8.748 481.032 C 8.422 481.234,8.384 481.151,8.627 480.762 C 9.118 479.976,9.202 479.151,8.765 479.422 C 8.564 479.546,8.400 479.308,8.400 478.893 C 8.400 478.479,7.950 477.717,7.400 477.200 C 6.546 476.398,6.400 476.362,6.400 476.954 " stroke="none" fill="#b5342c" fill-rule="evenodd"></path><path id="path4" d="M121.600 261.179 C 119.290 261.332,116.893 261.669,116.274 261.929 C 115.655 262.188,114.395 262.406,113.474 262.414 C 112.553 262.421,111.080 262.775,110.200 263.200 C 109.320 263.625,108.229 263.979,107.776 263.986 C 107.324 263.994,106.604 264.264,106.176 264.587 C 105.749 264.910,105.091 265.180,104.712 265.187 C 104.089 265.199,101.510 266.315,100.000 267.226 C 99.670 267.425,98.815 267.852,98.100 268.174 C 97.385 268.496,96.800 268.948,96.800 269.180 C 96.800 269.411,96.440 269.600,96.000 269.600 C 95.560 269.600,95.200 269.750,95.200 269.933 C 95.200 270.116,94.278 270.863,93.150 271.593 C 90.136 273.547,83.671 280.212,82.668 282.400 C 82.416 282.950,81.995 283.580,81.732 283.800 C 81.469 284.020,80.792 285.081,80.228 286.158 C 79.663 287.235,79.036 288.316,78.833 288.560 C 78.630 288.805,78.342 289.491,78.193 290.086 C 78.044 290.681,77.669 291.377,77.361 291.633 C 77.052 291.889,76.794 292.481,76.787 292.949 C 76.780 293.417,76.523 294.132,76.216 294.537 C 75.909 294.942,75.532 296.022,75.379 296.937 C 75.225 297.852,74.852 298.955,74.550 299.389 C 74.247 299.823,74.000 300.746,74.000 301.440 C 74.000 302.134,73.735 303.337,73.411 304.113 C 73.087 304.888,72.644 307.025,72.427 308.862 C 72.210 310.698,71.858 313.190,71.645 314.400 C 71.158 317.171,71.135 422.346,71.621 427.400 C 72.414 435.653,72.828 438.700,73.398 440.475 C 73.729 441.506,74.000 442.754,74.000 443.247 C 74.000 444.181,75.283 448.521,76.174 450.600 C 76.457 451.260,77.105 452.880,77.615 454.200 C 78.484 456.449,81.317 462.054,82.054 462.982 C 82.236 463.212,83.435 464.750,84.718 466.400 C 88.170 470.838,94.797 476.510,97.550 477.384 C 98.018 477.533,98.400 477.810,98.400 478.000 C 98.400 478.190,98.805 478.461,99.300 478.601 C 100.128 478.835,100.771 479.103,104.200 480.648 C 104.860 480.946,106.343 481.386,107.496 481.627 C 108.649 481.868,109.695 482.230,109.820 482.432 C 109.945 482.635,110.712 482.803,111.524 482.806 C 112.336 482.810,114.080 483.082,115.400 483.411 C 124.857 485.771,147.155 483.402,153.486 479.365 C 153.973 479.054,154.603 478.799,154.886 478.797 C 155.363 478.795,160.392 475.761,161.483 474.818 C 161.749 474.588,162.094 474.400,162.250 474.400 C 162.592 474.400,162.835 474.179,167.400 469.716 C 170.446 466.738,172.573 464.085,174.600 460.740 C 175.608 459.075,178.800 452.677,178.800 452.320 C 178.800 452.100,179.051 451.354,179.357 450.660 C 180.656 447.720,182.002 442.869,182.813 438.200 C 183.043 436.880,183.415 434.745,183.640 433.456 C 183.865 432.167,184.215 429.107,184.418 426.656 C 184.858 421.345,184.865 320.099,184.426 315.200 C 184.082 311.359,183.353 306.580,182.747 304.200 C 182.524 303.320,182.126 301.610,181.865 300.400 C 181.603 299.190,181.166 297.807,180.894 297.326 C 180.622 296.846,180.394 296.126,180.386 295.726 C 180.379 295.327,180.025 294.280,179.600 293.400 C 179.175 292.520,178.821 291.507,178.814 291.149 C 178.806 290.791,178.530 290.274,178.200 290.000 C 177.870 289.726,177.600 289.192,177.600 288.812 C 177.600 288.433,177.240 287.707,176.800 287.200 C 176.360 286.693,176.000 286.009,176.000 285.680 C 176.000 285.351,175.370 284.314,174.600 283.374 C 173.830 282.434,173.200 281.546,173.200 281.400 C 173.200 280.276,165.891 272.793,162.554 270.502 C 158.366 267.625,153.755 265.200,152.474 265.200 C 152.047 265.200,151.493 264.952,151.241 264.650 C 150.990 264.347,150.092 263.989,149.245 263.854 C 148.399 263.718,147.187 263.337,146.553 263.006 C 145.919 262.676,144.748 262.404,143.950 262.402 C 143.153 262.401,141.803 262.154,140.950 261.854 C 139.052 261.186,127.554 260.785,121.600 261.179 M280.400 261.169 C 278.310 261.315,276.093 261.652,275.474 261.917 C 274.855 262.183,273.772 262.400,273.068 262.400 C 272.364 262.400,271.116 262.760,270.296 263.200 C 269.475 263.640,268.464 264.000,268.050 264.000 C 267.637 264.000,267.074 264.270,266.800 264.600 C 266.526 264.930,266.005 265.200,265.642 265.200 C 265.279 265.200,264.025 265.830,262.856 266.600 C 261.687 267.370,260.575 268.000,260.385 268.000 C 260.195 268.000,259.896 268.241,259.720 268.535 C 259.544 268.830,259.048 269.263,258.618 269.497 C 257.425 270.148,252.400 275.315,252.400 275.892 C 252.400 276.171,252.230 276.400,252.022 276.400 C 251.643 276.400,250.970 277.464,249.809 279.900 C 249.468 280.615,249.033 281.200,248.841 281.200 C 248.650 281.200,248.351 281.605,248.177 282.100 C 247.987 282.639,247.749 279.868,247.583 275.200 C 247.431 270.910,247.282 267.111,247.253 266.758 C 247.224 266.406,246.759 265.641,246.219 265.058 L 245.238 264.000 231.433 264.000 C 218.018 264.000,217.616 264.023,217.198 264.803 C 216.656 265.816,217.122 479.038,217.668 480.100 C 218.225 481.183,246.736 481.176,247.716 480.092 C 248.298 479.450,248.375 472.274,248.550 402.592 C 248.663 357.731,248.902 324.469,249.125 322.600 C 249.654 318.162,250.354 314.163,251.015 311.800 C 251.323 310.700,251.693 309.170,251.838 308.400 C 251.984 307.630,252.349 306.645,252.651 306.211 C 252.953 305.777,253.200 305.147,253.199 304.811 C 253.197 303.986,254.877 300.679,255.500 300.280 C 255.775 300.104,256.000 299.715,256.000 299.415 C 256.000 297.736,263.789 291.605,265.933 291.598 C 266.300 291.596,267.116 291.326,267.746 290.998 C 269.060 290.312,282.973 290.109,283.381 290.769 C 283.506 290.972,284.192 291.262,284.905 291.412 C 286.555 291.761,288.619 292.990,290.388 294.677 C 291.152 295.404,291.917 296.000,292.088 296.000 C 292.260 296.000,292.400 296.206,292.400 296.459 C 292.400 296.711,293.005 297.836,293.744 298.959 C 294.484 300.081,295.307 301.672,295.573 302.494 C 295.840 303.316,296.225 304.092,296.429 304.218 C 296.633 304.344,296.800 305.038,296.800 305.760 C 296.800 306.482,297.112 307.956,297.493 309.036 C 298.140 310.868,298.200 316.659,298.393 395.239 C 298.566 465.826,298.689 479.584,299.149 480.139 C 299.928 481.077,327.989 481.154,328.922 480.221 C 330.070 479.073,330.356 313.812,329.231 302.035 C 328.970 299.304,328.496 296.447,328.178 295.686 C 327.860 294.925,327.600 293.791,327.600 293.166 C 327.600 292.541,327.240 291.116,326.800 290.000 C 326.360 288.884,326.000 287.639,326.000 287.234 C 326.000 286.829,325.730 286.274,325.400 286.000 C 325.070 285.726,324.800 285.098,324.800 284.605 C 324.800 284.112,324.440 283.250,324.000 282.691 C 323.560 282.131,323.200 281.398,323.200 281.061 C 323.200 280.723,323.031 280.343,322.825 280.215 C 322.618 280.088,321.907 279.042,321.245 277.892 C 320.583 276.741,319.492 275.204,318.820 274.475 C 318.149 273.747,317.600 273.080,317.600 272.993 C 317.600 272.789,315.611 270.800,315.407 270.800 C 315.320 270.800,314.653 270.251,313.925 269.580 C 312.065 267.868,308.737 265.700,307.487 265.386 C 306.907 265.241,306.223 264.869,305.967 264.561 C 305.711 264.252,305.116 264.000,304.645 264.000 C 304.174 264.000,303.116 263.640,302.296 263.200 C 301.475 262.760,300.359 262.400,299.815 262.400 C 299.272 262.400,298.057 262.146,297.114 261.835 C 295.066 261.160,285.804 260.791,280.400 261.169 M133.800 262.022 C 135.560 262.219,138.577 262.544,140.504 262.744 C 142.431 262.944,144.231 263.292,144.504 263.517 C 144.777 263.742,146.072 264.123,147.381 264.365 C 148.691 264.606,149.942 264.982,150.161 265.201 C 150.381 265.421,150.842 265.600,151.186 265.600 C 151.530 265.600,152.484 265.960,153.304 266.400 C 154.125 266.840,155.055 267.200,155.370 267.200 C 155.685 267.200,156.212 267.469,156.541 267.798 C 156.870 268.128,157.558 268.577,158.070 268.797 C 162.668 270.778,171.792 279.634,174.142 284.400 C 174.305 284.730,174.875 285.720,175.410 286.600 C 175.944 287.480,176.570 288.650,176.801 289.200 C 177.032 289.750,177.465 290.740,177.763 291.400 C 179.602 295.470,180.000 296.502,180.000 297.197 C 180.000 297.624,180.251 298.564,180.558 299.286 C 181.460 301.408,182.320 305.940,183.389 314.200 C 184.305 321.282,184.315 423.083,183.400 427.865 C 183.070 429.589,182.792 431.900,182.783 433.000 C 182.773 434.100,182.580 435.810,182.355 436.800 C 182.129 437.790,181.686 439.942,181.370 441.582 C 181.055 443.222,180.617 444.743,180.398 444.962 C 180.179 445.181,180.000 445.822,180.000 446.386 C 180.000 446.950,179.640 448.084,179.200 448.904 C 178.760 449.725,178.400 450.657,178.400 450.975 C 178.400 451.721,175.206 458.435,174.522 459.129 C 174.235 459.419,174.000 459.819,174.000 460.016 C 174.000 461.871,165.704 471.017,161.400 473.907 C 159.860 474.941,158.510 475.883,158.400 476.001 C 158.290 476.120,157.750 476.436,157.200 476.705 C 156.650 476.974,155.930 477.349,155.600 477.538 C 153.573 478.699,149.852 480.141,146.600 481.025 C 142.461 482.150,141.282 482.387,136.800 482.990 C 125.746 484.478,112.912 483.149,104.000 479.594 C 102.790 479.111,101.260 478.510,100.600 478.258 C 99.940 478.006,98.536 477.215,97.480 476.500 C 96.424 475.785,95.454 475.200,95.324 475.200 C 94.203 475.200,87.341 468.681,84.588 465.000 C 83.600 463.680,82.524 462.248,82.196 461.819 C 81.868 461.389,81.600 460.826,81.600 460.568 C 81.600 460.309,81.342 459.883,81.026 459.621 C 80.710 459.359,80.336 458.617,80.194 457.972 C 80.052 457.328,79.771 456.800,79.568 456.800 C 79.366 456.800,79.200 456.587,79.200 456.326 C 79.200 456.066,78.869 455.121,78.465 454.226 C 76.956 450.886,76.000 448.154,76.000 447.181 C 76.000 446.629,75.752 445.823,75.450 445.389 C 75.147 444.955,74.773 443.610,74.619 442.400 C 74.465 441.190,74.147 439.570,73.913 438.800 C 73.678 438.030,73.332 435.870,73.144 434.000 C 72.234 424.959,71.568 320.167,72.399 316.677 C 72.619 315.755,72.970 313.290,73.181 311.200 C 73.564 307.390,74.752 301.380,75.283 300.565 C 75.439 300.326,75.742 299.426,75.956 298.565 C 77.304 293.142,83.276 281.699,85.499 280.280 C 85.774 280.104,86.000 279.796,86.000 279.594 C 86.000 277.755,100.084 267.200,102.538 267.200 C 102.848 267.200,103.322 266.935,103.591 266.611 C 103.860 266.286,104.737 265.901,105.540 265.754 C 106.343 265.607,107.355 265.242,107.789 264.943 C 108.223 264.644,109.033 264.392,109.589 264.382 C 110.145 264.373,111.320 264.096,112.200 263.767 C 113.080 263.438,115.420 262.976,117.400 262.739 C 127.454 261.538,128.913 261.475,133.800 262.022 M291.000 262.002 C 297.562 262.862,299.133 263.155,301.527 263.968 C 302.916 264.440,304.356 264.972,304.727 265.150 C 305.097 265.328,306.300 265.905,307.400 266.432 C 315.471 270.299,324.298 281.687,325.783 290.149 C 325.932 291.001,326.208 291.991,326.394 292.349 C 327.060 293.623,328.107 299.872,328.415 304.400 C 328.801 310.069,328.899 440.374,328.534 463.100 L 328.270 479.600 314.122 479.600 C 303.014 479.600,299.933 479.490,299.779 479.089 C 299.671 478.808,299.427 440.693,299.238 394.389 C 299.005 337.710,298.755 309.743,298.472 308.800 C 298.241 308.030,297.804 306.410,297.501 305.200 C 295.441 296.975,288.873 290.517,281.600 289.566 C 276.082 288.845,267.593 289.399,265.891 290.592 C 265.413 290.926,264.634 291.200,264.160 291.200 C 263.686 291.200,263.080 291.463,262.813 291.785 C 262.546 292.106,261.969 292.483,261.530 292.622 C 259.094 293.395,253.154 300.929,252.533 304.033 C 252.405 304.675,252.158 305.200,251.985 305.200 C 251.812 305.200,251.543 305.965,251.388 306.900 C 251.233 307.835,250.857 309.086,250.553 309.680 C 250.249 310.274,250.000 311.226,250.000 311.795 C 250.000 312.363,249.653 314.307,249.228 316.114 C 247.646 322.853,247.467 330.943,247.229 406.800 L 247.000 479.400 232.689 479.505 C 221.451 479.588,218.340 479.502,218.196 479.105 C 218.096 478.827,217.966 430.675,217.907 372.100 L 217.800 265.600 231.692 265.600 L 245.585 265.600 245.784 266.500 C 246.201 268.380,246.802 275.310,246.840 278.684 C 246.914 285.255,247.486 285.632,250.182 280.888 C 252.455 276.888,252.185 277.245,255.611 273.701 C 258.543 270.668,260.212 269.224,261.633 268.490 C 262.165 268.216,263.140 267.635,263.800 267.200 C 264.460 266.765,265.270 266.293,265.600 266.150 C 268.724 264.805,269.699 264.443,270.858 264.195 C 271.596 264.037,272.400 263.747,272.644 263.551 C 272.889 263.355,274.509 262.999,276.244 262.761 C 285.282 261.518,286.737 261.443,291.000 262.002 M121.800 288.992 C 120.920 289.320,119.930 289.593,119.600 289.599 C 117.529 289.637,111.972 293.414,109.200 296.667 C 107.759 298.358,104.392 305.313,104.104 307.194 C 103.986 307.967,103.699 308.960,103.467 309.400 C 100.869 314.333,100.857 428.323,103.455 434.749 C 103.755 435.491,104.001 436.481,104.002 436.949 C 104.004 437.417,104.271 438.310,104.596 438.933 C 104.921 439.557,105.377 440.772,105.609 441.633 C 105.841 442.495,106.204 443.200,106.415 443.200 C 106.627 443.200,106.800 443.536,106.800 443.946 C 106.800 444.356,107.160 445.150,107.600 445.709 C 108.040 446.269,108.400 446.883,108.400 447.075 C 108.400 447.586,113.200 452.486,114.600 453.404 C 116.244 454.481,117.325 455.136,117.800 455.342 C 124.288 458.154,133.656 457.877,139.800 454.691 C 141.716 453.698,146.000 450.483,146.000 450.038 C 146.000 449.762,146.350 449.282,147.949 447.363 C 148.294 446.949,149.886 443.612,150.984 441.000 C 152.017 438.544,152.822 434.961,153.681 429.000 C 154.423 423.852,154.402 321.895,153.658 316.600 C 152.833 310.725,151.716 305.717,150.888 304.183 C 150.656 303.753,149.981 302.410,149.388 301.200 C 148.795 299.990,148.061 298.716,147.755 298.369 C 147.450 298.021,147.200 297.597,147.200 297.425 C 147.200 295.796,138.529 289.648,136.180 289.613 C 135.729 289.606,135.135 289.375,134.861 289.100 C 134.078 288.316,123.844 288.232,121.800 288.992 M133.200 289.848 C 139.375 291.027,143.353 293.577,146.853 298.600 C 148.445 300.884,150.000 303.971,150.000 304.846 C 150.000 305.173,150.170 305.611,150.378 305.820 C 150.844 306.289,151.894 310.785,152.476 314.800 C 153.126 319.288,153.166 428.100,152.519 431.600 C 150.558 442.200,147.602 448.175,142.369 452.114 C 138.979 454.666,137.118 455.357,130.800 456.412 C 121.837 457.909,109.816 451.316,107.398 443.577 C 107.230 443.040,106.846 442.245,106.546 441.811 C 106.246 441.377,106.000 440.652,106.000 440.200 C 106.000 439.748,105.755 439.023,105.455 438.589 C 105.155 438.155,104.480 435.820,103.955 433.400 L 103.000 429.000 103.000 372.000 L 103.000 315.000 103.900 311.733 C 104.395 309.937,104.800 308.024,104.800 307.482 C 104.800 306.941,105.070 306.274,105.400 306.000 C 105.730 305.726,106.000 305.168,106.000 304.760 C 106.000 304.118,107.013 302.005,108.885 298.738 C 109.903 296.963,112.218 294.400,112.803 294.400 C 113.022 294.400,113.200 294.230,113.200 294.022 C 113.200 293.231,118.977 290.520,121.400 290.174 C 122.500 290.018,123.760 289.745,124.200 289.570 C 125.536 289.037,129.608 289.163,133.200 289.848 " stroke="none" fill="#f0a186" fill-rule="evenodd"></path></g></svg>