<?xml version="1.0" encoding="utf-8"?>
<!-- Generator: Adobe Illustrator 19.0.0, SVG Export Plug-In . SVG Version: 6.00 Build 0)  -->
<svg version="1.1" id="Layer_1" xmlns="http://www.w3.org/2000/svg" xmlns:xlink="http://www.w3.org/1999/xlink" x="0px" y="0px"
	 viewBox="-205 297 200 200" style="enable-background:new -205 297 200 200;" xml:space="preserve">
<style type="text/css">
	.st0{fill:none;stroke:#FFFFFF;stroke-width:9;}
	.st1{fill:#FFFFFF;}
</style>
<title>Artboard 6</title>
<desc>Created with Sketch.</desc>
<path id="Fill-853" class="st0" d="M-105,303c51.9,0,94,42.1,94,94s-42.1,94-94,94s-94-42.1-94-94S-156.9,303-105,303"/>
<path id="Shape" class="st1" d="M-97.7,321.1c0,0,14.6,23.5,12.2,46.7c-2.6,23.3-18.2,33.9-26,51.7c-7.7,17.9-3.2,36.4,3.2,41.3
	c-8.5-6.1-30.8-17.4-29.2-47.5c0.8-9.3,6.5-26,20.3-42.2C-103.4,354.8-94.5,348.3-97.7,321.1z"/>
<path id="Shape_1_" class="st1" d="M-129.1,449c0,0-20.8-14.6-21.6-36.8c-0.8-9.7,4.5-24.6,17.3-36c14.6-13,18.7-15.7,21.7-19
	c-8.4,10-26.8,29.5-29.8,46.3C-144.5,420.3-138.5,437.6-129.1,449z"/>
<path id="Shape_2_" class="st1" d="M-103.4,462.2c0,0-13-19-3.5-39.5c3.2-6.2,14.6-19.8,20-32.2c5.4-12.5,6.5-20,6.2-28.7
	c8.3,11.7,21.9,46.3,6.5,73.1c4.8-3,11.9-9.7,14.6-17.1C-60.9,432.8-67.7,460.6-103.4,462.2z"/>
<path id="Shape_3_" class="st1" d="M-102,459.2c0,0-8.3-14.8,1.1-29.5c7.5-11.9,15.5-14.4,20-27.3c0.8,13.6,0.3,31.4-11.4,46.5
	c4.8-0.8,7.8-2.4,11.9-5.1C-83.1,449.6-88.2,456.8-102,459.2z"/>
<path id="Shape_4_" class="st1" d="M-115.6,452.3c0,0-23.4-26.6-7-53.9c11.4-19.8,26-21,29.2-49.6c0,20.7,2.2,30.8-15.5,53.8
	C-120.5,417.7-123.2,438-115.6,452.3z"/>
<path id="Shape_5_" class="st1" d="M-86.5,323.7c0,0,6.6,19.1-13.1,46.7c-14.4,19.9-42.6,49.6-12.6,85.9
	c-12.2-12.6-23.9-34.5-10.8-60.5C-111.1,372.2-82.1,356.9-86.5,323.7z"/>
</svg>
